<?xml version="1.0" encoding="UTF-8"?>
<svg version="1.1" xmlns="http://www.w3.org/2000/svg" width="512" height="512">
<path d="M0 0 C15.94753085 14.10983582 28.96316072 29.70767652 40.25537109 47.73803711 C40.82336426 48.6371582 40.82336426 48.6371582 41.40283203 49.55444336 C53.2307012 68.55289409 60.53065432 89.96466368 65.25537109 111.73803711 C65.52003174 112.87547363 65.52003174 112.87547363 65.79003906 114.03588867 C75.01086804 154.8122404 67.62265245 201.69174743 49.25537109 238.73803711 C48.88041504 239.50954102 48.50545898 240.28104492 48.11914062 241.07592773 C40.38938801 256.87668819 31.09438427 271.41576037 18.82421875 284.09863281 C17.14674265 285.84537256 17.14674265 285.84537256 15.25537109 288.73803711 C15.60272391 292.79020569 16.69830051 296.26786392 18.22631836 300.0168457 C18.63561081 301.02982727 19.04490326 302.04280884 19.46659851 303.08648682 C19.91380753 304.17548279 20.36101654 305.26447876 20.82177734 306.38647461 C21.52129265 308.11084747 21.52129265 308.11084747 22.23493958 309.87005615 C23.23712806 312.33859047 24.24142594 314.80613398 25.24945068 317.27227783 C26.82503127 321.12764867 28.39092202 324.98690642 29.95507812 328.84692383 C32.0540406 334.02471103 34.15569172 339.20139378 36.26074219 344.37670898 C36.51511803 345.00210257 36.76949387 345.62749615 37.03157806 346.27184105 C38.22463345 349.20475236 39.41794973 352.13755744 40.61138916 355.0703125 C42.94910265 360.81657528 45.28081592 366.56517205 47.60128784 372.31842041 C48.60955158 374.81155663 49.62677393 377.30091081 50.64428711 379.7902832 C51.25214422 381.2960969 51.85951615 382.80210657 52.46630859 384.30834961 C52.73812454 384.96623474 53.00994049 385.62411987 53.28999329 386.30194092 C56.205242 393.60507689 57.22423987 400.37271585 54.25537109 407.73803711 C50.68985519 413.26410623 46.70806784 416.98815324 40.25537109 418.73803711 C32.45657363 419.41890383 25.15998532 417.94783708 17.57177734 416.29663086 C16.39445541 416.05010269 15.21713348 415.80357452 14.00413513 415.54957581 C10.27331436 414.76766782 6.54541645 413.97290265 2.81787109 413.17553711 C-0.93481909 412.37542119 -4.68802214 411.57831749 -8.44337463 410.79078674 C-10.77321005 410.30203833 -13.10152143 409.80595639 -15.42808533 409.30186462 C-16.47670242 409.08156082 -17.52531952 408.86125702 -18.60571289 408.63427734 C-19.52819321 408.43664291 -20.45067352 408.23900848 -21.40110779 408.03538513 C-23.89396937 407.54719223 -23.89396937 407.54719223 -26.74462891 408.73803711 C-28.41214931 410.94613659 -29.93132577 413.13697144 -31.42822266 415.45678711 C-31.88011459 416.14262878 -32.33200653 416.82847046 -32.79759216 417.53509521 C-33.76466674 419.0042061 -34.72824356 420.47562428 -35.68865967 421.94909668 C-37.67771683 424.99759157 -39.68802053 428.03182583 -41.6973877 431.06695557 C-43.16702736 433.28744311 -44.63420357 435.50953806 -46.10058594 437.73217773 C-52.47645637 447.39239871 -52.47645637 447.39239871 -55.61962891 451.98803711 C-56.24889282 452.94806641 -56.24889282 452.94806641 -56.89086914 453.92749023 C-60.68705003 459.41111566 -65.45320928 463.11897337 -72.08837891 464.36694336 C-78.78851607 464.22597513 -84.38503864 464.03725371 -89.74462891 459.73803711 C-94.92968176 453.47084925 -97.81238123 446.26015723 -100.68212891 438.73803711 C-101.70482418 436.11742364 -102.72967674 433.49771523 -103.75634766 430.87866211 C-104.18948776 429.76905121 -104.18948776 429.76905121 -104.63137817 428.63702393 C-107.57361397 421.1202519 -110.60470468 413.63978279 -113.63916016 406.15991211 C-114.16421224 404.86471868 -114.68923148 403.56951194 -115.21421814 402.27429199 C-117.34056952 397.02919245 -119.46744151 391.78430813 -121.59884644 386.54125977 C-122.62962864 384.00519977 -123.65855171 381.46840131 -124.68534851 378.9307251 C-125.63561554 376.58222415 -126.58857326 374.23480974 -127.54450989 371.88861084 C-127.96665268 370.84344299 -128.38879547 369.79827515 -128.82373047 368.72143555 C-129.19612854 367.80376404 -129.56852661 366.88609253 -129.95220947 365.94061279 C-130.74462891 363.73803711 -130.74462891 363.73803711 -130.74462891 361.73803711 C-131.40462891 361.73803711 -132.06462891 361.73803711 -132.74462891 361.73803711 C-133.14302979 362.97779297 -133.54143066 364.21754883 -133.9519043 365.49487305 C-135.88801402 371.29648968 -138.14901109 376.95482361 -140.42822266 382.62866211 C-140.88029587 383.75968353 -141.33236908 384.89070496 -141.79814148 386.05599976 C-143.00778601 389.07981974 -144.21985231 392.10265039 -145.43375397 395.12476349 C-146.18404485 396.99280735 -146.93373734 398.86109039 -147.68328857 400.72943115 C-150.60341943 408.00693458 -153.53037108 415.28167536 -156.4619751 422.55456543 C-157.60523517 425.39207002 -158.74642113 428.2303958 -159.88671875 431.0690918 C-161.53602639 435.17188669 -163.2000703 439.26844121 -164.86962891 443.36303711 C-165.32265381 444.49 -165.77567871 445.61696289 -166.24243164 446.77807617 C-169.19697553 453.95691369 -171.94373796 459.67566957 -179.27587891 462.99975586 C-184.92687961 464.6896912 -191.45205996 465.43897753 -196.82849121 462.66151428 C-202.75050805 458.89614729 -206.30700143 454.90508971 -210.02978516 449.00756836 C-210.57517441 448.1765007 -211.12056366 447.34543304 -211.68247986 446.48918152 C-213.4075238 443.85347941 -215.10795401 441.20297259 -216.80712891 438.55053711 C-218.51119286 435.92538365 -220.22025222 433.30353743 -221.93002319 430.68209839 C-223.02782009 428.99832879 -224.12358484 427.3132323 -225.2171936 425.6267395 C-229.19602857 419.50886534 -233.33650934 413.55708731 -237.74462891 407.73803711 C-241.45338798 408.44415147 -245.16154192 409.15340249 -248.86962891 409.86303711 C-250.02076172 410.08241943 -251.17189453 410.30180176 -252.35791016 410.52783203 C-258.84949816 411.77196609 -265.3290193 413.05628818 -271.79931641 414.40600586 C-273.79775396 414.81920218 -275.79630452 415.23184875 -277.79486084 415.64447021 C-279.70293132 416.04185299 -281.60882441 416.44964541 -283.51464844 416.85766602 C-301.9839128 420.66759282 -301.9839128 420.66759282 -309.92431641 416.05444336 C-315.71378627 411.8676379 -318.29557353 407.52922605 -319.71337891 400.55834961 C-319.80450213 392.33447901 -316.33625481 384.73544823 -313.22900391 377.27709961 C-312.78093887 376.18481552 -312.33287384 375.09253143 -311.87123108 373.96714783 C-310.41877867 370.42976708 -308.956675 366.89646197 -307.49462891 363.36303711 C-305.99133837 359.70769972 -304.49062072 356.05131309 -302.99006653 352.39485168 C-301.99151946 349.96205361 -300.99216188 347.52958806 -299.99198914 345.09745789 C-295.48858567 334.1408475 -291.07554525 323.14962194 -286.69885254 312.14190674 C-286.1577709 310.78106847 -285.61643571 309.42033098 -285.07481384 308.05970764 C-284.38914613 306.33648348 -283.70511118 304.61260988 -283.02124023 302.88867188 C-282.08030368 300.5664714 -281.10069011 298.28337489 -280.08447266 295.99487305 C-278.61334714 292.41892289 -278.27586771 291.26644045 -279.74462891 287.73803711 C-281.45912337 285.56362732 -283.17904693 283.57158018 -285.05712891 281.55053711 C-316.40538733 246.20848046 -332.23437104 199.17782796 -332.11962891 152.36303711 C-332.11875275 151.48574951 -332.11787659 150.60846191 -332.11697388 149.70458984 C-331.93456808 94.1269953 -309.2434925 44.71879562 -270.09448242 5.78515625 C-259.71837342 -4.28414378 -247.97472647 -12.60239148 -235.74462891 -20.26196289 C-234.84550781 -20.82995605 -234.84550781 -20.82995605 -233.92822266 -21.40942383 C-214.92977192 -33.23729299 -193.51800233 -40.53724612 -171.74462891 -45.26196289 C-170.98633789 -45.43840332 -170.22804687 -45.61484375 -169.44677734 -45.79663086 C-110.34237564 -59.16201439 -45.04658127 -39.03910968 0 0 Z M-243.15673828 37.17358398 C-270.02661333 63.1041875 -289.28592437 100.84746843 -290.90576172 138.48168945 C-291.47501869 162.80982795 -291.47501869 162.80982795 -287.74462891 186.73803711 C-287.54063477 187.53274414 -287.33664062 188.32745117 -287.12646484 189.14624023 C-277.97142094 223.87410694 -258.71646846 255.97926902 -229.74462891 277.73803711 C-228.73529297 278.52436523 -227.72595703 279.31069336 -226.68603516 280.12084961 C-209.84565147 292.95041314 -190.97563462 300.89395211 -170.74462891 306.73803711 C-169.51873047 307.09639648 -168.29283203 307.45475586 -167.02978516 307.82397461 C-132.48216804 316.45020286 -94.51213508 311.14046435 -62.74462891 295.73803711 C-62.07254395 295.41577148 -61.40045898 295.09350586 -60.70800781 294.76147461 C-23.86042199 276.83414484 5.18566369 244.04988588 18.71313477 205.421875 C27.9659923 177.71098638 31.75568458 145.42907586 24.25537109 116.73803711 C24.05137695 115.94333008 23.84738281 115.14862305 23.63720703 114.32983398 C13.98064484 77.69955586 -6.77462718 44.95974094 -37.74462891 22.73803711 C-38.31729492 22.3171582 -38.88996094 21.8962793 -39.47998047 21.46264648 C-101.93619845 -24.14475442 -187.83236616 -14.63812959 -243.15673828 37.17358398 Z M-244.74462891 317.73803711 C-247.5758334 324.80339033 -250.40569646 331.86927972 -253.23461914 338.93554688 C-254.19752476 341.34029363 -255.16073957 343.74491661 -256.12426758 346.14941406 C-257.50764604 349.60180839 -258.88991889 353.05464356 -260.27197266 356.50756836 C-260.70428696 357.58577347 -261.13660126 358.66397858 -261.58201599 359.77485657 C-262.18252525 361.27607307 -262.18252525 361.27607307 -262.79516602 362.80761719 C-263.14824326 363.68919998 -263.5013205 364.57078278 -263.86509705 365.4790802 C-264.54051861 367.21380782 -265.15594612 368.97198876 -265.74462891 370.73803711 C-261.34868632 369.92612749 -256.9528941 369.11340658 -252.55712891 368.30053711 C-251.31125 368.07043945 -250.06537109 367.8403418 -248.78173828 367.60327148 C-247.5796875 367.3809082 -246.37763672 367.15854492 -245.13916016 366.92944336 C-244.03419189 366.72520752 -242.92922363 366.52097168 -241.79077148 366.31054688 C-239.8604857 365.94775773 -237.9325599 365.57197161 -236.00830078 365.1784668 C-229.35040929 363.88307894 -222.52475377 363.80967433 -216.56494141 367.30834961 C-209.55741241 372.81211702 -205.01484841 381.70764174 -200.17431641 389.08959961 C-197.79007522 392.70794434 -195.28191549 396.22556564 -192.74462891 399.73803711 C-190.62578004 397.61918824 -189.98257689 396.21005712 -188.88110352 393.45947266 C-188.52410873 392.57482834 -188.16711395 391.69018402 -187.79930115 390.7787323 C-187.41903275 389.82042007 -187.03876434 388.86210785 -186.64697266 387.87475586 C-186.25264542 386.8906221 -185.85831818 385.90648834 -185.45204163 384.89253235 C-184.61826432 382.80793943 -183.78707074 380.72231154 -182.95825195 378.63574219 C-181.69036347 375.44625191 -180.41246801 372.26090875 -179.13330078 369.07592773 C-178.32475344 367.05077841 -177.51679144 365.02539526 -176.70947266 362.99975586 C-176.32718002 362.04751633 -175.94488739 361.09527679 -175.55101013 360.11418152 C-175.19716751 359.22008072 -174.84332489 358.32597992 -174.47875977 357.40478516 C-174.0114872 356.23135811 -174.0114872 356.23135811 -173.53477478 355.03422546 C-172.70419498 352.62053488 -172.18990935 350.24897465 -171.74462891 347.73803711 C-172.33663086 347.59817383 -172.92863281 347.45831055 -173.53857422 347.31420898 C-199.32861698 341.13254941 -221.78324593 330.9171286 -244.74462891 317.73803711 Z M-23.99511719 320.37915039 C-44.79616994 333.37777648 -67.62744967 343.03988531 -91.74462891 347.73803711 C-89.80044596 354.64427704 -87.45925967 361.26861038 -84.73291016 367.90209961 C-84.17327827 369.27922623 -84.17327827 369.27922623 -83.6023407 370.68417358 C-82.42486755 373.57888702 -81.24111895 376.47098398 -80.05712891 379.36303711 C-79.25137169 381.34073117 -78.4460293 383.31859429 -77.64111328 385.29663086 C-75.68040376 390.1123987 -73.71406696 394.92583264 -71.74462891 399.73803711 C-68.56866879 396.76408308 -66.20210415 393.64868738 -63.81103516 390.01928711 C-63.07949219 388.92229492 -62.34794922 387.82530273 -61.59423828 386.69506836 C-60.44828836 384.96571236 -59.30495063 383.23472383 -58.1652832 381.5012207 C-57.05420774 379.81510446 -55.93272123 378.13586336 -54.81103516 376.45678711 C-54.15047119 375.45583008 -53.48990723 374.45487305 -52.80932617 373.42358398 C-49.49033796 369.10658383 -45.96452864 366.35175844 -40.74462891 364.73803711 C-31.76080099 363.57850196 -22.90659848 365.88735927 -14.18212891 367.80053711 C-12.13770996 368.24369916 -10.09276302 368.6835377 -8.0459137 369.11534119 C-6.2126252 369.50271771 -4.38174403 369.90143608 -2.55102539 370.30078125 C0.20020593 371.00711086 0.20020593 371.00711086 2.25537109 369.73803711 C1.93898682 368.97998779 1.62260254 368.22193848 1.29663086 367.44091797 C-5.57937968 350.94670061 -12.32303313 334.41593734 -18.74462891 317.73803711 C-20.75926795 317.73803711 -22.33849386 319.33491441 -23.99511719 320.37915039 Z " fill="#000000" transform="translate(387.74462890625,48.261962890625)"/>
<path d="M0 0 C6.41832575 3.79879217 9.24888883 8.34566129 12.37255859 14.97167969 C12.85692383 15.94903076 13.34128906 16.92638184 13.84033203 17.93334961 C14.90449159 20.08388047 15.95872824 22.23934236 17.00439453 24.39892578 C18.91468886 28.31422652 20.87623983 32.20096322 22.84912109 36.08496094 C24.23317016 38.81740913 25.61573762 41.55060411 26.99755859 44.28417969 C27.33587708 44.95296143 27.67419556 45.62174316 28.02276611 46.31079102 C28.98233901 48.21249535 29.93614995 50.11697337 30.88818359 52.02246094 C31.44022461 53.12243408 31.99226562 54.22240723 32.56103516 55.35571289 C33.74755859 57.97167969 33.74755859 57.97167969 33.74755859 59.97167969 C34.34407227 60.00543701 34.94058594 60.03919434 35.55517578 60.07397461 C45.72970484 60.78220163 55.78594112 62.30584292 65.86669922 63.81811523 C69.00236524 64.28489521 72.14039624 64.73277422 75.27880859 65.18066406 C77.29460735 65.48093221 79.31023886 65.78232568 81.32568359 66.08496094 C82.2529425 66.2142952 83.18020142 66.34362946 84.13555908 66.47688293 C90.78634088 67.50748745 96.91975174 69.16533626 101.80615234 74.01464844 C105.69737558 80.06643754 107.56432356 85.0458291 106.36865234 92.25683594 C104.66776197 98.49343397 101.22778409 102.4599033 96.74755859 106.97167969 C95.79948572 107.94548597 94.85158065 108.91945563 93.90380859 109.89355469 C89.70972671 114.16945268 85.50795884 118.41019433 80.93505859 122.28417969 C79.53460536 123.50808006 78.1398197 124.73846827 76.74755859 125.97167969 C76.14878906 126.49101074 75.55001953 127.0103418 74.93310547 127.54541016 C72.81805504 129.40441222 70.75109591 131.30845225 68.68505859 133.22167969 C67.9924292 133.81762939 67.2997998 134.4135791 66.58618164 135.02758789 C63.94586796 137.52941078 61.96606037 139.51017775 61.41577148 143.19091797 C61.62700994 146.18938763 62.15782349 149.02237791 62.74755859 151.97167969 C63.00719225 153.47484209 63.26211327 154.97882279 63.51342773 156.48339844 C64.56233558 162.69068402 65.67448716 168.88644942 66.81176758 175.078125 C71.88555074 202.82046323 71.88555074 202.82046323 67.62255859 210.47167969 C63.89653067 215.47852971 59.73521624 219.33021569 53.39208984 220.35058594 C46.89667199 220.7716682 42.14926707 219.57754756 36.45458984 216.53417969 C35.76829498 216.17949112 35.08200012 215.82480255 34.37490845 215.45936584 C32.15884014 214.30956796 29.95259923 213.14247146 27.74755859 211.97167969 C26.25493058 211.18424407 24.76217291 210.39705419 23.26928711 209.61010742 C22.52332779 209.21609238 21.77736847 208.82207733 21.00880432 208.41612244 C17.97921343 206.81611625 14.94813956 205.21893094 11.91650391 203.62280273 C10.36654949 202.80279173 8.81940477 201.9774511 7.27490234 201.1472168 C4.9999923 199.92644652 2.71505024 198.72666357 0.42724609 197.53027344 C-0.2571756 197.15648056 -0.94159729 196.78268768 -1.64675903 196.39756775 C-5.98155693 194.16125031 -8.580895 193.49820593 -13.25244141 194.97167969 C-15.60533638 196.01285012 -17.82933366 197.08235202 -20.09228516 198.28808594 C-20.73629776 198.62283432 -21.38031036 198.9575827 -22.0438385 199.30247498 C-24.09669413 200.37197028 -26.14328511 201.45287706 -28.18994141 202.53417969 C-29.52874345 203.23349581 -30.86793359 203.93206947 -32.20751953 204.62988281 C-37.65292285 207.47258001 -43.08433473 210.34044368 -48.49511719 213.24853516 C-49.17901016 213.61559067 -49.86290314 213.98264618 -50.56752014 214.36082458 C-51.87036145 215.06109223 -53.17205122 215.76350792 -54.47239685 216.46839905 C-61.18743079 220.08000198 -66.68688432 220.6683782 -74.25244141 219.97167969 C-80.28187599 218.07050662 -84.20304578 213.39048507 -87.36572266 208.11450195 C-91.92624171 197.09366611 -86.32401556 180.68540081 -84.25244141 169.53417969 C-83.67762514 166.40282948 -83.10614408 163.27094949 -82.54052734 160.13792419 C-82.19024405 158.20136339 -81.83440895 156.26579589 -81.47216797 154.33143616 C-80.13935701 147.68164082 -80.13935701 147.68164082 -80.25244141 140.97167969 C-82.02582789 138.35813532 -82.02582789 138.35813532 -84.56494141 136.03808594 C-85.93199219 134.69327148 -85.93199219 134.69327148 -87.32666016 133.32128906 C-88.30174555 132.39206891 -89.27700699 131.46303346 -90.25244141 130.53417969 C-91.18701172 129.61830078 -92.12158203 128.70242187 -93.08447266 127.75878906 C-97.75755601 123.20661766 -102.52133956 118.79862313 -107.4609375 114.53833008 C-110.25899248 112.09146188 -112.92343982 109.52298532 -115.56494141 106.90917969 C-116.07605469 106.41869141 -116.58716797 105.92820312 -117.11376953 105.42285156 C-122.20741218 100.3821987 -124.7343195 95.41675706 -125.31884766 88.34277344 C-125.14526735 82.1449354 -122.7626678 76.23811006 -118.25244141 71.97167969 C-111.3724959 67.7471429 -105.15679532 67.1447721 -97.20556641 66.49121094 C-94.64238557 66.21423753 -92.07989353 65.93082817 -89.51806641 65.64160156 C-85.51464778 65.19144199 -81.5171026 64.77284271 -77.49853516 64.4831543 C-62.44291892 63.74116463 -62.44291892 63.74116463 -49.9284668 56.48638916 C-45.95206864 50.4068417 -43.51439357 43.82992406 -41.26403809 36.95492554 C-39.96173007 33.11435838 -38.25879655 29.60094227 -36.37744141 26.01855469 C-35.84763672 24.94863281 -35.31783203 23.87871094 -34.77197266 22.77636719 C-34.27052734 21.76832031 -33.76908203 20.76027344 -33.25244141 19.72167969 C-32.72005859 18.63628906 -32.18767578 17.55089844 -31.63916016 16.43261719 C-31.11966797 15.38847656 -30.60017578 14.34433594 -30.06494141 13.26855469 C-29.61763672 12.36459961 -29.17033203 11.46064453 -28.70947266 10.52929688 C-22.75987611 0.0856016 -11.74738082 -5.3631008 0 0 Z M-10.25244141 66.97167969 C-10.5647168 67.61194092 -10.87699219 68.25220215 -11.19873047 68.91186523 C-12.62689219 71.83082272 -14.06455939 74.74499897 -15.50244141 77.65917969 C-15.99357422 78.66658203 -16.48470703 79.67398438 -16.99072266 80.71191406 C-23.23778827 93.33098661 -23.23778827 93.33098661 -30.25244141 96.97167969 C-33.57397461 97.77124023 -33.57397461 97.77124023 -37.30322266 98.35839844 C-38.29143257 98.51850151 -38.29143257 98.51850151 -39.29960632 98.68183899 C-41.38660235 99.01762599 -43.47556003 99.33860717 -45.56494141 99.65917969 C-46.98762318 99.88541605 -48.41015148 100.1126198 -49.83251953 100.34082031 C-53.30412197 100.89564144 -56.77763953 101.43721678 -60.25244141 101.97167969 C-56.52021079 106.53605766 -52.67936503 110.46672141 -48.18994141 114.28417969 C-42.74517256 119.12751099 -37.69545757 124.35091209 -37.09619141 131.95410156 C-36.98012237 137.51090688 -37.72759634 142.77430502 -38.75244141 148.22167969 C-40.04178519 155.04526126 -40.04178519 155.04526126 -40.25244141 161.97167969 C-38.65916016 161.17503906 -38.65916016 161.17503906 -37.03369141 160.36230469 C-28.53369141 156.11230469 -28.53369141 156.11230469 -26.38916016 155.04882812 C-24.96553632 154.33116035 -23.55121902 153.59472387 -22.14697266 152.83984375 C-15.73316007 149.44052308 -10.50130227 148.66501807 -3.25244141 149.97167969 C1.72964511 151.805398 6.33828954 154.4103571 10.96044922 156.99707031 C14.44781753 158.89892473 18.09994306 160.40841589 21.74755859 161.97167969 C21.31611709 156.20398801 20.71696869 150.54048149 19.68505859 144.84667969 C18.04017983 135.02801876 18.03407928 128.52114752 23.74755859 119.97167969 C27.99701968 114.95206041 33.05510943 110.73168187 38.08349609 106.51464844 C39.9784077 104.87779636 39.9784077 104.87779636 41.74755859 101.97167969 C40.87542725 101.84639893 40.0032959 101.72111816 39.10473633 101.59204102 C35.83872919 101.11343759 32.57629872 100.61755149 29.31469727 100.11010742 C27.90850575 99.8948987 26.50126472 99.68642645 25.09301758 99.48510742 C8.96610437 97.16982921 8.96610437 97.16982921 4.74755859 91.97167969 C2.32521684 88.20961312 0.3294001 84.30437432 -1.62744141 80.28417969 C-2.15982422 79.22650391 -2.69220703 78.16882813 -3.24072266 77.07910156 C-4.59418936 74.38422192 -5.928345 71.68107022 -7.25244141 68.97167969 C-7.74744141 67.98167969 -7.74744141 67.98167969 -8.25244141 66.97167969 C-8.91244141 66.97167969 -9.57244141 66.97167969 -10.25244141 66.97167969 Z " fill="#000000" transform="translate(265.25244140625,81.0283203125)"/>
</svg>
