<?xml version="1.0" encoding="UTF-8"?>
<svg version="1.1" xmlns="http://www.w3.org/2000/svg" width="512" height="512">
<path d="M0 0 C1.90492218 -0.01051392 1.90492218 -0.01051392 3.84832764 -0.02124023 C7.29475318 -0.03929145 10.74069342 -0.03248276 14.18712616 -0.01972389 C17.81698281 -0.00950059 21.44680164 -0.01901517 25.07666016 -0.02526855 C31.16902014 -0.03251811 37.26118531 -0.02302851 43.35351562 -0.00390625 C50.36780984 0.01785747 57.38163875 0.01080417 64.39592171 -0.01121187 C70.44984442 -0.02944319 76.50362817 -0.03188669 82.5575695 -0.0214572 C86.1594898 -0.01526445 89.76119238 -0.01426871 93.36309814 -0.02760315 C97.38296452 -0.04144906 101.40204591 -0.02218681 105.421875 0 C106.59417664 -0.00809692 107.76647827 -0.01619385 108.9743042 -0.02453613 C122.34655203 0.11136809 133.99491816 4.56379986 143.96484375 13.54882812 C152.53944055 22.53018948 156.51603034 33.94745164 160.00878906 45.64819336 C160.59575917 47.61295413 161.19898792 49.57219042 161.8046875 51.53125 C164.7109375 61.07541454 164.7109375 61.07541454 164.7109375 64.51757812 C165.41091858 64.50869568 166.11089966 64.49981323 166.83209229 64.49066162 C173.47997223 64.40998575 180.12771243 64.34934774 186.77597427 64.31032944 C190.19266157 64.28959412 193.60893908 64.2615405 197.02539062 64.21582031 C200.96739527 64.16340665 204.90924319 64.14451677 208.8515625 64.12695312 C210.66167816 64.09598541 210.66167816 64.09598541 212.50836182 64.06439209 C227.05271786 64.06060496 237.88017108 69.01334954 248.4609375 78.83007812 C260.73997652 91.80415709 261.15695149 106.0654342 261.11499023 122.92333984 C261.12069863 124.99399177 261.1276647 127.06464056 261.13578796 129.13528442 C261.15368311 134.7386707 261.15255775 140.34190006 261.14684558 145.9453063 C261.14374829 150.63201744 261.14985224 155.31869867 261.15588433 160.00540555 C261.16991615 171.06661744 261.16837957 182.12775207 261.15698242 193.18896484 C261.14550397 204.58044223 261.15957549 215.9716841 261.1863789 227.36313045 C261.2085678 237.16218146 261.21516603 246.96115871 261.20930248 256.76023304 C261.20593919 262.60452423 261.20830628 268.44866448 261.22555351 274.29293442 C261.24107125 279.79078124 261.23701345 285.28828041 261.21824837 290.78611374 C261.21457578 292.79677771 261.21763187 294.80746771 261.22813416 296.8181076 C261.31269405 314.35391507 258.70547463 327.16006618 246.2734375 340.33007812 C235.48832315 350.49480979 222.93224804 353.12654897 208.44091797 353.0255127 C207.03667494 353.03013171 205.63243677 353.0364913 204.22820854 353.04442167 C200.40181899 353.0610011 196.57583242 353.05292114 192.7494421 353.0404768 C188.6102988 353.03138154 184.47122211 353.04541811 180.33209229 353.05639648 C172.23631621 353.07413876 164.14068888 353.07036092 156.04490709 353.05874592 C149.46252254 353.04969493 142.88017953 353.04849479 136.29779053 353.05284119 C135.35925826 353.05345412 134.42072599 353.05406705 133.45375335 353.05469856 C131.54686052 353.05597752 129.63996771 353.05727437 127.7330749 353.05858892 C109.87202957 353.06998215 92.0110665 353.05690077 74.15003467 353.03538746 C58.84021631 353.01751762 43.53051929 353.02062208 28.22070312 353.0390625 C10.42150184 353.06049145 -7.37762744 353.06888363 -25.17683983 353.05661345 C-27.07653172 353.05533931 -28.97622362 353.05408183 -30.87591553 353.05284119 C-32.27776917 353.05191553 -32.27776917 353.05191553 -33.70794308 353.05097118 C-40.27880344 353.04752435 -46.84961794 353.05333221 -53.42047119 353.0627594 C-61.43335007 353.07400328 -69.44607231 353.07088925 -77.45893335 353.04963642 C-81.54352846 353.03915805 -85.62786285 353.03494895 -89.71245575 353.04823303 C-93.45804255 353.06022993 -97.20312912 353.05347577 -100.9486711 353.03232282 C-102.93150578 353.02580063 -104.91437571 353.03872731 -106.89717293 353.05255175 C-121.55297802 352.92524612 -132.49401683 348.09323546 -143.1015625 338.08007812 C-155.16293005 325.28257078 -155.88039466 310.58084685 -155.80664062 293.88476562 C-155.81206888 291.81381744 -155.81919548 289.74287312 -155.82788086 287.67193604 C-155.84603329 282.07688073 -155.83908009 276.48212222 -155.82636452 270.88706207 C-155.81619488 265.0150323 -155.82564117 259.14302693 -155.83190918 253.27099609 C-155.83917406 243.41238878 -155.8296283 233.55390156 -155.81054688 223.6953125 C-155.78878046 212.31855328 -155.79583265 200.94208087 -155.8178525 189.5653286 C-155.83603952 179.77472171 -155.83854867 169.98420086 -155.82809782 160.19358253 C-155.82188106 154.35603768 -155.82097714 148.51862737 -155.83424377 142.68109131 C-155.84584974 137.19141043 -155.83768996 131.70209717 -155.81466675 126.21245575 C-155.80940497 124.20502074 -155.81084973 122.19755446 -155.81971741 120.19013214 C-155.88985864 102.69045404 -153.25004385 89.99630684 -140.9765625 76.76757812 C-130.119094 66.49175972 -118.14321405 64.03990462 -103.625 64.22460938 C-102.35177887 64.22885422 -101.07855774 64.23309906 -99.76675415 64.23747253 C-96.41617155 64.25132898 -93.06622729 64.27818071 -89.71582031 64.31158447 C-86.28325859 64.34252409 -82.85063035 64.35602838 -79.41796875 64.37109375 C-72.70816023 64.40402726 -65.99864813 64.4541245 -59.2890625 64.51757812 C-59.16521683 63.93745468 -59.04137115 63.35733124 -58.91377258 62.7596283 C-57.4602723 56.06683175 -55.55956799 49.60369041 -53.4765625 43.08007812 C-52.9805957 41.4780957 -52.9805957 41.4780957 -52.47460938 39.84375 C-47.80287908 25.165012 -41.73654429 14.60393183 -28.5859375 6.12304688 C-19.10190074 1.50463561 -10.49195979 -0.0724665 0 0 Z M-14.1015625 36.83007812 C-18.46716157 42.19352841 -20.3648278 47.43414147 -22.28515625 53.98242188 C-22.84946122 55.85290929 -23.41391906 57.72335058 -23.97851562 59.59375 C-24.85496191 62.5266158 -25.7281419 65.46040756 -26.59790039 68.39526367 C-27.4434926 71.23944157 -28.301227 74.07974817 -29.16015625 76.91992188 C-29.54161049 78.22799049 -29.54161049 78.22799049 -29.93077087 79.56248474 C-31.6788279 85.31948486 -33.48320312 90.45430883 -38.51615906 94.15525818 C-41.82988042 95.7832805 -44.08907933 95.89567202 -47.77246094 95.90234375 C-49.71037506 95.91751038 -49.71037506 95.91751038 -51.68743896 95.9329834 C-52.3732177 95.93142746 -53.05899643 95.92987152 -53.76555634 95.92826843 C-55.92784392 95.92376691 -58.08932303 95.93785733 -60.25152588 95.95666504 C-64.84735836 95.99336894 -69.44310512 96.00713168 -74.0390625 96.01757812 C-79.35484815 96.02970126 -84.67023845 96.05150188 -89.98584747 96.09757996 C-92.10236146 96.11103521 -94.21836079 96.10699962 -96.3348999 96.10217285 C-107.76723078 96.02888681 -107.76723078 96.02888681 -117.86248779 100.7923584 C-123.04268632 106.39464031 -123.58798206 113.30056535 -123.54975891 120.58786011 C-123.55358446 121.37153304 -123.55741001 122.15520598 -123.56135148 122.96262658 C-123.57162216 125.5732983 -123.56770067 128.18374766 -123.5637207 130.79443359 C-123.56807047 132.67246706 -123.57325451 134.55049876 -123.57920837 136.42852783 C-123.59258137 141.51948439 -123.59317891 146.61036664 -123.59064507 151.70133734 C-123.58957417 155.95572827 -123.59446182 160.21010424 -123.5992505 164.46449196 C-123.6103399 174.50384591 -123.61078633 184.54316243 -123.60473633 194.58251953 C-123.59869678 204.92933776 -123.6110084 215.27601999 -123.6323064 225.62281501 C-123.6499364 234.51560102 -123.65592153 243.40834379 -123.65266865 252.30114663 C-123.65085783 257.60825113 -123.653472 262.91525862 -123.66738319 268.22234726 C-123.67997957 273.21449827 -123.67800025 278.20643767 -123.66497231 283.19858551 C-123.66261089 285.02667691 -123.66532556 286.85478329 -123.67359543 288.68285751 C-124.30065109 302.64608846 -124.30065109 302.64608846 -119.01414967 315.07774162 C-112.07478193 321.55725328 -103.20847823 320.80571932 -94.35940552 320.77827454 C-93.05303788 320.78210008 -91.74667024 320.78592563 -90.40071571 320.7898671 C-86.7853727 320.80013701 -83.17012897 320.79796787 -79.55477786 320.79368651 C-75.65147762 320.79121745 -71.74820117 320.80023569 -67.84490967 320.807724 C-60.20202074 320.82046808 -52.55916696 320.82226505 -44.9162692 320.81992374 C-38.70321759 320.81814007 -32.49017664 320.81989126 -26.27712631 320.82414818 C-25.39255765 320.82474337 -24.50798899 320.82533856 -23.59661522 320.82595178 C-21.79955754 320.82716354 -20.00249985 320.82837768 -18.20544218 320.82959416 C-1.35554863 320.8404686 15.4943249 320.83830767 32.34421958 320.83220931 C47.75391878 320.82704039 63.16355476 320.83829512 78.57324146 320.85730753 C94.40159621 320.87668656 110.22992105 320.88494181 126.05828774 320.88118428 C134.94242249 320.87927231 143.82650344 320.88175934 152.71062851 320.89589882 C160.27389781 320.90781441 167.83708018 320.90921551 175.40035067 320.89710865 C179.25767836 320.89122118 183.11484707 320.89011681 186.97216415 320.90211105 C191.15733975 320.91497332 195.34213721 320.90450229 199.52731323 320.89179993 C201.3484828 320.90286135 201.3484828 320.90286135 203.20644367 320.91414624 C210.13244512 320.86990889 217.64207941 320.79852688 223.29200733 316.24267274 C228.45705949 310.62576684 229.00988204 303.73935263 228.97163391 296.44729614 C228.97545946 295.66362321 228.97928501 294.87995027 228.98322648 294.07252967 C228.99349716 291.46185795 228.98957567 288.85140859 228.9855957 286.24072266 C228.98994547 284.36268919 228.99512951 282.48465749 229.00108337 280.60662842 C229.01445637 275.51567186 229.01505391 270.42478961 229.01252007 265.33381891 C229.01144917 261.07942798 229.01633682 256.82505201 229.0211255 252.57066429 C229.0322149 242.53131034 229.03266133 232.49199382 229.02661133 222.45263672 C229.02057178 212.10581849 229.0328834 201.75913626 229.0541814 191.41234124 C229.0718114 182.51955523 229.07779653 173.62681246 229.07454365 164.73400962 C229.07273283 159.42690512 229.075347 154.11989763 229.08925819 148.81280899 C229.10185457 143.82065798 229.09987525 138.82871858 229.08684731 133.83657074 C229.08448589 132.00847934 229.08720056 130.18037296 229.09547043 128.35229874 C229.72252609 114.38906779 229.72252609 114.38906779 224.43602467 101.95741463 C219.2245108 97.09125591 212.8126502 96.26978967 205.95288086 96.26220703 C204.6514061 96.25524811 203.34993134 96.24828918 202.00901794 96.24111938 C200.98054151 96.24214094 200.98054151 96.24214094 199.93128777 96.24318314 C197.76557596 96.24415645 195.60034957 96.23111409 193.43470764 96.21420288 C187.28227391 96.1681606 181.12989534 96.14331904 174.97729492 96.13671875 C171.20184803 96.13169407 167.42691599 96.10740549 163.65164375 96.07139206 C162.21922463 96.06162475 160.78673446 96.05924534 159.35429192 96.06456375 C157.34937719 96.07166272 155.34442229 96.0522189 153.33959961 96.03173828 C152.2015538 96.02888824 151.063508 96.02603821 149.89097595 96.02310181 C145.36665666 95.30388077 142.10981068 93.39129443 139.34983826 89.69445801 C137.11636433 84.72120445 135.37698739 79.72465056 133.87109375 74.48632812 C133.36025666 72.77141566 132.84918171 71.05657404 132.33789062 69.34179688 C131.55282855 66.67715041 130.77165473 64.01145281 129.99536133 61.34423828 C129.23509052 58.74259301 128.46011144 56.14566281 127.68359375 53.54882812 C127.45946304 52.76213745 127.23533234 51.97544678 127.00440979 51.16491699 C125.10706407 44.85841982 122.53101562 38.75917868 117.2734375 34.58007812 C111.06026192 32.00388337 104.48494008 32.369358 97.87548828 32.37231445 C96.79506256 32.36895584 95.71463684 32.36559723 94.60147095 32.36213684 C91.03638554 32.3526522 87.47134723 32.35068502 83.90625 32.34960938 C81.42292257 32.34639525 78.93959534 32.34303106 76.45626831 32.33952332 C71.25290488 32.3335384 66.04955804 32.33168278 60.84619141 32.33227539 C54.18609819 32.33237702 47.52614888 32.31872122 40.86607552 32.30150318 C35.73761508 32.29037319 30.60918035 32.28835649 25.48070908 32.28888512 C23.02557889 32.28770665 20.57044801 32.28329238 18.11532974 32.27555275 C14.67853621 32.26573215 11.24197319 32.26863915 7.80517578 32.2746582 C6.79608154 32.2690387 5.7869873 32.26341919 4.74731445 32.25762939 C-2.08671252 32.28797225 -8.61564637 32.31943597 -14.1015625 36.83007812 Z " fill="#000000" transform="translate(203.2890625,79.482421875)"/>
<path d="M0 0 C19.41513413 15.83036047 34.05409201 37.67987498 37 63 C39.00706443 91.38316441 34.11130766 116.2402984 15.84375 138.64453125 C-0.57892148 157.46699451 -22.83614019 171.43272251 -48.21777344 173.22753906 C-76.8329536 174.49950262 -101.20094475 168.80835389 -123.1875 149.625 C-141.72962913 132.23989973 -154.23970686 110.00534464 -155.3828125 84.2890625 C-156.09445376 55.78869783 -149.21659255 31.57486407 -129.3359375 10.37109375 C-94.83017582 -24.65398542 -39.47352935 -30.18232772 0 0 Z M-102 30 C-114.33119355 41.93157154 -121.95398863 56.30752096 -122.29223633 73.60253906 C-122.36159124 83.51945617 -121.99552044 91.79065289 -118 101 C-117.63777344 101.87527344 -117.27554688 102.75054687 -116.90234375 103.65234375 C-109.86685408 119.13042103 -96.51841767 130.83848774 -80.9375 137.25 C-63.91331734 142.96474679 -45.88616431 141.80499822 -29.75927734 133.93896484 C-14.29110536 125.68326273 -3.47968063 111.87655607 2.23828125 95.54296875 C6.25601008 82.12993559 5.55873161 65.81242073 0 53 C-0.54333984 51.68708984 -0.54333984 51.68708984 -1.09765625 50.34765625 C-8.13314592 34.86957897 -21.48158233 23.16151226 -37.0625 16.75 C-60.05575021 9.03153237 -83.9646753 13.95996266 -102 30 Z " fill="#000000" transform="translate(315,195)"/>
</svg>
