<?xml version="1.0" encoding="UTF-8"?>
<svg version="1.1" xmlns="http://www.w3.org/2000/svg" width="512" height="512">
<path d="M0 0 C6.04242437 2.71851985 9.86334454 7.09259735 12.44140625 13.1796875 C14.77653416 20.2521726 13.98491578 25.38387287 10.94001257 31.96603703 C8.7254016 35.91628951 5.72567593 38.89299095 2.51335144 42.0484314 C1.79616749 42.77270974 1.07898353 43.49698808 0.34006673 44.24321425 C-2.05169146 46.65248968 -4.46080636 49.04359217 -6.87036133 51.43505859 C-8.59460694 53.16444526 -10.31778042 54.89490143 -12.03996277 56.62634277 C-16.22589358 60.82885078 -20.42334613 65.01962386 -24.62654809 69.20483987 C-28.04299631 72.60723457 -31.45431584 76.01469473 -34.86206627 79.42580032 C-35.34796683 79.91217832 -35.83386739 80.39855632 -36.3344922 80.89967305 C-37.3216924 81.88789962 -38.30887809 82.87614067 -39.29604944 83.86439605 C-48.01468724 92.59159064 -56.74586369 101.30613404 -65.48364258 110.01416016 C-73.95593577 118.45760512 -82.41725637 126.91186065 -90.86743164 135.37744141 C-100.07891509 144.60569536 -109.29673626 153.82753476 -118.52535552 163.03865492 C-119.5097998 164.02125489 -120.49423929 165.00385965 -121.47867393 165.98646927 C-121.96299241 166.46987565 -122.44731088 166.95328203 -122.94630567 167.45133709 C-126.35398206 170.8534144 -129.75719268 174.2599199 -133.15876198 177.66810226 C-137.73824758 182.25613757 -142.32842003 186.83330523 -146.92585945 191.40335083 C-148.6115209 193.08212516 -150.29379531 194.76430832 -151.97241592 196.45012283 C-154.26401839 198.75041257 -156.56757342 201.03802817 -158.87458801 203.32284546 C-159.53627654 203.99277476 -160.19796507 204.66270406 -160.87970477 205.35293424 C-166.08823676 210.46933204 -171.11872332 213.71285296 -178.68359375 213.8046875 C-179.94623047 213.85109375 -179.94623047 213.85109375 -181.234375 213.8984375 C-190.49317361 212.14583801 -197.01277455 206.38858091 -203.42919922 199.86181641 C-204.27279495 199.02376968 -205.11639069 198.18572296 -205.98554993 197.32228088 C-208.27345639 195.04409052 -210.5499282 192.75522329 -212.82113791 190.46040773 C-215.21205091 188.04922482 -217.61611244 185.65121186 -220.01834106 183.25131226 C-224.04628861 179.22331133 -228.06432217 175.1856325 -232.07617188 171.14160156 C-236.70291694 166.47792212 -241.343609 161.8284979 -245.9923352 157.18673575 C-250.4824442 152.70294753 -254.96394245 148.21065329 -259.44113541 143.71397018 C-261.33884103 141.80812761 -263.23921148 139.90500366 -265.14178085 138.00401688 C-267.79850574 135.34549067 -270.44520844 132.67737646 -273.08935547 130.00634766 C-274.26448952 128.83560951 -274.26448952 128.83560951 -275.46336365 127.64122009 C-281.72458679 121.28171773 -286.01425702 115.65723838 -286.62109375 106.5546875 C-286.52193924 99.89894115 -284.08954244 94.02313619 -279.37109375 89.3046875 C-273.2137748 85.04635477 -267.82602722 83.60834756 -260.37109375 84.3046875 C-247.18836645 87.49405701 -236.90185683 101.63938281 -227.61328125 110.96484375 C-226.21531816 112.36467602 -224.81713109 113.76428463 -223.41873169 115.16368103 C-219.77027248 118.81592609 -216.12482853 122.47116594 -212.4800415 126.1270752 C-208.74765399 129.86976218 -205.01237122 133.60955727 -201.27734375 137.34960938 C-193.97245185 144.66516909 -186.67074765 151.98390143 -179.37109375 159.3046875 C-174.65893274 155.37153732 -170.20581542 151.27641013 -165.88856506 146.91549683 C-165.27569576 146.30065969 -164.66282646 145.68582255 -164.03138536 145.05235398 C-161.99646767 143.00977169 -159.96518118 140.96361702 -157.93383789 138.91748047 C-156.46821937 137.44502535 -155.00234656 135.9728233 -153.53623962 134.50085449 C-150.38824864 131.33957039 -147.24168408 128.17687572 -144.09611702 125.01317978 C-139.11967537 120.00882666 -134.13775522 115.00995219 -129.15464783 110.01223755 C-127.44633298 108.29877942 -125.73802481 106.58531463 -124.02972317 104.87184334 C-122.74689601 103.58513784 -122.74689601 103.58513784 -121.43815315 102.27243829 C-109.84450353 90.6427768 -98.25561421 79.0084031 -86.67700195 67.36376953 C-78.85679651 59.49906158 -71.02948611 51.64150032 -63.19405264 43.79196274 C-59.05137599 39.64121803 -54.91249199 35.48684066 -50.7823658 31.32360458 C-46.89950195 27.40966494 -43.00742076 23.50513487 -39.10811806 19.60757446 C-37.68082702 18.17759041 -36.2569607 16.74417843 -34.83684158 15.30707169 C-32.89393448 13.34194019 -30.93896579 11.38962626 -28.98060608 9.43991089 C-28.14725907 8.58806365 -28.14725907 8.58806365 -27.29707676 7.71900737 C-19.60470098 0.13244977 -10.71480626 -3.14206839 0 0 Z " fill="#000000" transform="translate(392.37109375,149.6953125)"/>
</svg>
