<?xml version="1.0" standalone="no"?>
<!DOCTYPE svg PUBLIC "-//W3C//DTD SVG 20010904//EN"
 "http://www.w3.org/TR/2001/REC-SVG-20010904/DTD/svg10.dtd">
<svg version="1.0" xmlns="http://www.w3.org/2000/svg"
 width="512.000000pt" height="512.000000pt" viewBox="0 0 512.000000 512.000000"
 preserveAspectRatio="xMidYMid meet">

<g transform="translate(0.000000,512.000000) scale(0.100000,-0.100000)"
fill="#000000" stroke="none">
<path d="M2330 5110 c-494 -48 -950 -230 -1350 -538 -195 -150 -448 -432 -594
-662 -63 -99 -186 -351 -230 -471 -49 -134 -102 -340 -128 -499 -31 -195 -31
-565 0 -760 45 -276 116 -498 237 -745 132 -269 269 -460 489 -681 221 -220
412 -357 681 -489 247 -121 469 -192 745 -237 195 -31 565 -31 760 0 276 45
498 116 745 237 269 132 460 269 681 489 220 221 357 412 489 681 88 179 132
296 180 476 63 240 78 371 78 649 0 278 -15 409 -78 649 -48 180 -92 297 -180
476 -132 269 -269 460 -489 681 -221 220 -412 357 -681 489 -246 121 -474 193
-740 235 -147 23 -475 34 -615 20z m490 -434 c649 -81 1215 -449 1565 -1016
322 -522 395 -1191 194 -1783 -159 -470 -484 -874 -919 -1142 -522 -322 -1191
-395 -1783 -194 -470 159 -874 484 -1142 919 -322 522 -395 1191 -194 1783
235 695 838 1239 1549 1397 219 49 509 63 730 36z"/>
<path d="M2938 3508 l-883 -443 -437 -870 c-240 -478 -440 -885 -444 -902 -9
-48 21 -94 74 -113 l43 -15 887 445 887 445 437 870 c240 479 440 884 443 901
12 58 -44 124 -104 124 -12 0 -418 -199 -903 -442z m-265 -770 c22 -14 51 -43
65 -65 23 -33 27 -48 27 -113 0 -65 -4 -80 -27 -113 -14 -22 -43 -51 -65 -65
-33 -23 -48 -27 -113 -27 -65 0 -80 4 -113 27 -61 41 -91 93 -95 164 -6 92 36
165 120 208 51 26 152 18 201 -16z"/>
</g>
</svg>
