<?xml version="1.0" standalone="no"?>
<!DOCTYPE svg PUBLIC "-//W3C//DTD SVG 20010904//EN"
 "http://www.w3.org/TR/2001/REC-SVG-20010904/DTD/svg10.dtd">
<svg version="1.0" xmlns="http://www.w3.org/2000/svg"
 width="512.000000pt" height="512.000000pt" viewBox="0 0 512.000000 512.000000"
 preserveAspectRatio="xMidYMid meet">

<g transform="translate(0.000000,512.000000) scale(0.100000,-0.100000)"
fill="#000000" stroke="none">
<path d="M2410 4626 c-159 -34 -180 -46 -946 -557 -485 -323 -748 -504 -782
-539 -65 -66 -117 -143 -149 -223 -53 -131 -53 -114 -53 -1203 0 -973 1 -1014
20 -1088 63 -248 268 -453 516 -516 75 -19 118 -20 1544 -20 1427 0 1469 1
1544 20 250 64 462 280 520 530 22 94 24 2028 2 2142 -27 143 -93 264 -197
366 -68 65 -1437 983 -1534 1027 -38 18 -99 40 -135 50 -88 22 -267 28 -350
11z m315 -336 c81 -31 1446 -941 1499 -1000 21 -23 50 -68 65 -99 l26 -56 3
-960 c2 -644 -1 -983 -8 -1030 -13 -88 -56 -180 -105 -230 -48 -48 -141 -91
-225 -104 -43 -7 -533 -11 -1420 -11 -887 0 -1377 4 -1420 11 -84 13 -177 56
-225 104 -49 50 -92 142 -105 230 -7 47 -10 386 -8 1030 l3 960 26 56 c15 31
44 76 65 99 25 28 288 209 725 501 377 251 705 467 727 478 110 56 261 64 377
21z"/>
<path d="M1388 2928 c-50 -13 -104 -74 -113 -126 -8 -47 17 -114 56 -148 77
-67 1016 -738 1065 -761 75 -34 182 -37 261 -5 54 20 1032 724 1087 781 68 71
45 200 -44 246 -32 17 -97 20 -132 6 -13 -5 -250 -174 -527 -375 -277 -202
-509 -365 -515 -363 -6 3 -236 168 -511 368 -446 324 -545 390 -580 388 -5 -1
-27 -6 -47 -11z"/>
</g>
</svg>
