<?xml version="1.0" standalone="no"?>
<!DOCTYPE svg PUBLIC "-//W3C//DTD SVG 20010904//EN"
 "http://www.w3.org/TR/2001/REC-SVG-20010904/DTD/svg10.dtd">
<svg version="1.0" xmlns="http://www.w3.org/2000/svg"
 width="512.000000pt" height="512.000000pt" viewBox="0 0 512.000000 512.000000"
 preserveAspectRatio="xMidYMid meet">

<g transform="translate(0.000000,512.000000) scale(0.100000,-0.100000)"
fill="#000000" stroke="none">
<path d="M2330 5110 c-619 -63 -1165 -322 -1592 -756 -205 -209 -344 -405
-474 -669 -126 -256 -204 -513 -246 -810 -16 -117 -16 -502 0 -625 37 -280
118 -551 236 -796 138 -285 268 -467 501 -699 230 -230 414 -363 689 -495 246
-119 474 -190 741 -232 201 -31 550 -31 750 0 277 43 513 118 754 238 280 139
449 261 676 489 228 227 350 396 489 676 122 245 202 505 242 784 27 190 25
529 -4 720 -67 433 -232 824 -494 1172 -96 127 -307 345 -433 445 -375 300
-813 487 -1285 548 -113 15 -444 21 -550 10z m299 -440 c118 -60 265 -310 366
-620 33 -105 105 -383 105 -409 0 -8 -155 -11 -540 -11 -385 0 -540 3 -540 11
0 24 70 300 100 394 87 272 198 484 307 586 74 71 132 85 202 49z m-790 -177
c-89 -194 -165 -433 -223 -705 l-33 -153 -433 -3 c-380 -2 -432 0 -426 13 12
33 131 200 200 282 182 217 395 389 643 520 91 48 283 132 305 133 4 0 -11
-39 -33 -87z m1502 52 c398 -153 768 -455 1003 -817 31 -47 56 -89 56 -92 0
-3 -194 -5 -432 -4 l-431 3 -32 150 c-58 268 -137 518 -224 708 -22 48 -38 87
-35 87 3 0 45 -16 95 -35z m-1825 -1427 c-17 -221 -26 -597 -18 -778 5 -107 7
-198 5 -202 -2 -5 -235 -8 -518 -8 l-514 0 -10 53 c-57 283 -36 689 51 980
l11 37 500 0 500 0 -7 -82z m1657 14 c21 -225 29 -455 24 -705 -3 -152 -9
-282 -12 -287 -9 -14 -1242 -14 -1250 0 -4 6 -9 133 -12 283 -5 244 4 517 24
715 l6 62 607 0 607 0 6 -68z m1435 31 c87 -291 108 -697 51 -980 l-10 -53
-514 0 c-283 0 -516 3 -518 8 -2 4 0 97 5 207 8 185 -1 547 -18 773 l-7 82
500 0 500 0 11 -37z m-3053 -1500 c50 -355 157 -751 275 -1015 27 -60 46 -108
44 -108 -17 0 -202 78 -282 119 -331 171 -615 426 -814 731 -68 104 -168 288
-168 309 0 8 138 11 469 11 l470 0 6 -47z m1580 10 c-93 -553 -243 -963 -423
-1155 -111 -119 -199 -116 -314 11 -175 194 -321 598 -413 1144 l-6 37 581 0
581 0 -6 -37z m1375 27 c0 -18 -87 -182 -145 -275 -204 -324 -494 -589 -833
-763 -83 -43 -268 -122 -286 -122 -2 0 18 50 45 110 115 257 224 663 274 1013
l6 47 470 0 c312 0 469 -3 469 -10z"/>
</g>
</svg>
