<?xml version="1.0" standalone="no"?>
<!DOCTYPE svg PUBLIC "-//W3C//DTD SVG 20010904//EN"
 "http://www.w3.org/TR/2001/REC-SVG-20010904/DTD/svg10.dtd">
<svg version="1.0" xmlns="http://www.w3.org/2000/svg"
 width="512.000000pt" height="512.000000pt" viewBox="0 0 512.000000 512.000000"
 preserveAspectRatio="xMidYMid meet">

<g transform="translate(0.000000,512.000000) scale(0.100000,-0.100000)"
fill="currentColor" stroke="none">
<path d="M1565 4835 c-769 -86 -1156 -451 -1271 -1200 -18 -111 -19 -195 -19
-1075 0 -1053 -1 -1038 65 -1303 123 -492 425 -793 920 -917 258 -65 258 -65
1305 -65 1039 0 1035 0 1284 61 529 131 837 456 950 1003 47 227 51 320 51
1217 0 492 -4 885 -10 950 -68 723 -383 1130 -990 1278 -249 60 -232 60 -1240
62 -721 2 -952 -1 -1045 -11z m2060 -328 c549 -98 789 -339 882 -887 13 -76
17 -196 20 -603 l5 -509 -69 57 c-161 133 -348 181 -551 139 -150 -30 -175
-48 -700 -498 -266 -228 -499 -422 -518 -431 -75 -35 -205 -35 -273 0 -15 7
-63 43 -107 80 -92 77 -194 130 -291 150 -130 28 -278 14 -393 -37 -30 -14
-261 -163 -513 -333 -253 -169 -462 -303 -467 -299 -13 15 -38 162 -50 294 -8
87 -10 395 -7 1015 4 950 4 947 56 1147 81 312 255 520 525 628 102 41 243 76
360 89 50 6 105 13 121 15 17 2 446 3 955 1 798 -2 937 -4 1015 -18z m555
-2137 c25 -13 114 -82 199 -154 l153 -131 -5 -245 c-6 -249 -18 -364 -56 -512
-94 -366 -313 -585 -679 -679 -210 -54 -215 -54 -1222 -54 -995 0 -1027 1
-1222 50 -196 48 -344 125 -457 237 -84 83 -120 137 -100 149 7 4 214 144 459
309 245 165 469 312 498 326 107 52 237 39 324 -31 182 -147 268 -190 409
-203 145 -14 268 9 384 73 35 20 259 204 538 444 339 290 490 414 520 425 23
8 49 17 57 20 36 13 156 -1 200 -24z"/>
<path d="M1773 3980 c-85 -22 -117 -38 -201 -97 -144 -102 -235 -280 -236
-463 -1 -164 54 -300 169 -416 230 -234 597 -234 830 0 115 115 170 251 169
416 -2 377 -366 656 -731 560z m263 -328 c115 -59 174 -188 140 -305 -21 -71
-65 -129 -123 -164 -42 -25 -58 -28 -133 -28 -75 0 -91 3 -133 28 -58 35 -102
93 -123 164 -39 135 42 277 186 324 41 14 142 3 186 -19z"/>
</g>
</svg>
