<?xml version="1.0" standalone="no"?>
<!DOCTYPE svg PUBLIC "-//W3C//DTD SVG 20010904//EN"
 "http://www.w3.org/TR/2001/REC-SVG-20010904/DTD/svg10.dtd">
<svg version="1.0" xmlns="http://www.w3.org/2000/svg"
 width="312.000000pt" height="314.000000pt" viewBox="0 0 312.000000 314.000000"
 preserveAspectRatio="xMidYMid meet">

<g transform="translate(0.000000,314.000000) scale(0.100000,-0.100000)"
fill="currentColor" stroke="none">
<path d="M1443 2406 c-134 -34 -255 -134 -316 -263 -31 -65 -32 -74 -35 -210
l-4 -143 -26 0 c-36 -1 -102 -32 -129 -61 -52 -57 -53 -68 -53 -506 0 -390 1
-408 21 -449 25 -52 73 -90 130 -103 62 -15 977 -14 1033 0 54 13 108 57 132
106 17 35 19 68 19 443 0 309 -3 414 -13 442 -19 53 -93 115 -146 123 l-43 7
-10 146 c-12 162 -25 206 -90 295 -45 61 -135 129 -208 156 -70 26 -194 35
-262 17z m207 -197 c55 -25 114 -80 143 -134 18 -33 22 -62 25 -162 l4 -123
-277 0 -278 0 8 122 c8 134 22 176 79 236 74 79 199 105 296 61z m378 -981
l-3 -373 -476 -3 -476 -2 -7 76 c-8 99 -8 397 1 552 l6 122 479 0 478 0 -2
-372z"/>
</g>
</svg>
