<?xml version="1.0" standalone="no"?>
<!DOCTYPE svg PUBLIC "-//W3C//DTD SVG 20010904//EN"
 "http://www.w3.org/TR/2001/REC-SVG-20010904/DTD/svg10.dtd">
<svg version="1.0" xmlns="http://www.w3.org/2000/svg"
 width="512.000000pt" height="512.000000pt" viewBox="0 0 512.000000 512.000000"
 preserveAspectRatio="xMidYMid meet">

<g transform="translate(0.000000,512.000000) scale(0.100000,-0.100000)"
fill="currentColor" stroke="currentColor" stroke-width="0">
<path d="M2325 4949 c-211 -20 -499 -94 -702 -181 -1136 -487 -1721 -1750
-1352 -2922 199 -633 632 -1138 1231 -1436 915 -455 2021 -275 2746 448 197
197 335 389 462 644 590 1186 98 2624 -1100 3214 -390 193 -841 274 -1285 233z
m436 -319 c717 -73 1345 -508 1664 -1155 463 -938 154 -2067 -725 -2653 -382
-254 -883 -378 -1341 -331 -409 42 -813 209 -1119 464 -99 83 -271 261 -342
356 -226 301 -370 671 -408 1048 -51 508 98 1036 408 1450 71 95 243 273 342
356 414 345 984 519 1521 465z"/>
<path d="M2485 4111 c-16 -10 -37 -27 -47 -37 -12 -14 -249 -441 -422 -761 -1
0 -192 -37 -425 -82 -265 -50 -435 -87 -455 -99 -49 -29 -76 -77 -76 -136 1
-28 6 -61 13 -73 7 -11 145 -162 308 -335 l295 -314 -55 -442 -56 -442 23 -42
c31 -58 65 -81 127 -86 51 -4 67 2 449 182 l397 187 393 -186 c425 -200 443
-206 516 -167 19 11 44 38 59 65 l26 46 -56 442 -55 443 295 314 c163 173 301
324 308 335 17 30 16 112 -1 145 -20 38 -55 68 -96 80 -19 6 -217 46 -440 88
-223 42 -405 77 -406 78 0 0 -92 168 -203 371 -112 204 -212 381 -224 393 -50
54 -135 69 -192 33z m225 -743 c162 -297 180 -325 224 -343 17 -7 169 -39 339
-71 169 -32 307 -61 307 -64 0 -3 -97 -108 -216 -234 -118 -126 -222 -242
-230 -257 -21 -41 -18 -95 21 -398 20 -151 35 -282 33 -292 -3 -15 -49 4 -293
119 -239 113 -298 137 -335 137 -37 0 -96 -25 -334 -138 -159 -75 -292 -135
-295 -132 -2 3 12 137 32 298 41 322 44 365 23 406 -8 15 -112 131 -230 257
-119 126 -216 232 -216 235 0 3 116 27 258 53 384 72 392 74 427 110 17 17 98
154 180 304 82 149 151 272 155 272 3 0 71 -118 150 -262z"/>
</g>
</svg>
