<?xml version="1.0" standalone="no"?>
<!DOCTYPE svg PUBLIC "-//W3C//DTD SVG 20010904//EN"
 "http://www.w3.org/TR/2001/REC-SVG-20010904/DTD/svg10.dtd">
<svg version="1.0" xmlns="http://www.w3.org/2000/svg"
 width="512.000000pt" height="512.000000pt" viewBox="0 0 512.000000 512.000000"
 preserveAspectRatio="xMidYMid meet">

<g transform="translate(0.000000,512.000000) scale(0.100000,-0.100000)"
fill="#000000" stroke="none">
<path d="M2315 5109 c-800 -83 -1501 -518 -1927 -1196 -487 -774 -516 -1777
-75 -2578 234 -427 603 -795 1023 -1022 281 -152 572 -247 909 -295 136 -19
522 -16 670 6 567 83 1062 333 1462 738 403 407 641 895 725 1483 17 118 17
512 0 630 -59 416 -191 769 -410 1099 -92 140 -185 254 -315 385 -399 404
-893 653 -1462 737 -123 18 -478 26 -600 13z m525 -373 c661 -89 1232 -457
1585 -1021 162 -259 276 -587 315 -905 13 -109 13 -391 0 -500 -42 -341 -165
-679 -350 -959 -68 -102 -216 -289 -230 -290 -3 -1 -20 33 -39 75 -183 408
-555 706 -1014 814 -218 52 -842 54 -1082 5 -440 -91 -824 -391 -1020 -797
l-47 -97 -50 57 c-286 324 -474 748 -528 1192 -13 109 -13 391 0 500 47 388
196 762 427 1068 348 465 881 776 1463 857 130 17 440 18 570 1z m120 -3131
c348 -52 654 -275 812 -590 46 -92 91 -216 81 -226 -4 -4 -57 -39 -118 -79
-265 -174 -599 -292 -934 -331 -151 -17 -466 -7 -606 20 -350 66 -628 187
-927 402 -11 8 32 130 79 224 156 308 471 533 819 584 105 15 687 13 794 -4z"/>
<path d="M2391 4060 c-456 -96 -769 -540 -712 -1010 49 -394 335 -709 713
-786 108 -22 303 -15 403 15 284 84 510 304 604 586 144 437 -47 913 -449
1115 -135 68 -197 82 -365 86 -82 2 -170 -1 -194 -6z m333 -380 c81 -28 145
-71 211 -141 200 -216 193 -562 -14 -770 -208 -207 -515 -207 -722 0 -216 217
-214 569 5 786 82 82 167 128 276 149 50 10 186 -3 244 -24z"/>
</g>
</svg>
