<?xml version="1.0" standalone="no"?>
<!DOCTYPE svg PUBLIC "-//W3C//DTD SVG 20010904//EN"
 "http://www.w3.org/TR/2001/REC-SVG-20010904/DTD/svg10.dtd">
<svg version="1.0" xmlns="http://www.w3.org/2000/svg"
 width="512.000000pt" height="512.000000pt" viewBox="0 0 512.000000 512.000000"
 preserveAspectRatio="xMidYMid meet">

<g transform="translate(0.000000,512.000000) scale(0.100000,-0.100000)"
fill="currentColor" stroke="none">
<path d="M2350 5109 c-464 -52 -872 -241 -1203 -558 -361 -347 -577 -790 -628
-1285 -14 -144 -7 -417 14 -531 92 -490 365 -1001 847 -1580 309 -372 703
-764 1074 -1069 l106 -87 128 105 c349 288 749 687 1052 1051 480 576 756
1091 847 1580 21 114 28 388 14 529 -57 552 -320 1041 -751 1398 -148 123
-388 260 -583 332 -273 102 -633 147 -917 115z m385 -399 c574 -66 1062 -411
1310 -925 172 -358 212 -769 111 -1141 -86 -317 -312 -721 -620 -1108 -220
-276 -599 -677 -879 -930 l-97 -88 -108 98 c-59 53 -206 197 -327 318 -723
726 -1137 1390 -1206 1933 -26 212 2 488 72 712 232 732 982 1218 1744 1131z"/>
<path d="M2397 4004 c-436 -79 -758 -439 -784 -880 -20 -339 141 -659 426
-848 83 -55 154 -88 270 -123 78 -24 101 -27 251 -27 150 0 173 3 251 27 218
67 374 172 502 340 362 472 204 1156 -329 1425 -179 90 -391 121 -587 86z
m278 -399 c285 -60 476 -342 426 -631 -36 -206 -209 -391 -412 -439 -189 -44
-375 9 -515 149 -226 226 -216 583 23 796 131 116 304 162 478 125z"/>
</g>
</svg>
