<?xml version="1.0" encoding="UTF-8"?>
<svg version="1.1" xmlns="http://www.w3.org/2000/svg" width="512" height="512">
<path d="M0 0 C1.41501027 0.71823003 2.83032015 1.43586993 4.24584961 2.15307617 C5.05110077 2.56238373 5.85635193 2.97169128 6.68600464 3.3934021 C11.62552676 5.89206231 16.58353043 8.35379745 21.53857613 10.8214817 C24.76948022 12.43121928 27.99895144 14.04382634 31.22851562 15.65625 C35.2293137 17.65368275 39.23034103 19.65064769 43.23266602 21.64501953 C68.68705449 34.33020942 68.68705449 34.33020942 78.93359375 39.78515625 C86.80279067 43.97430095 94.75744284 47.98579074 102.734375 51.96484375 C103.36898336 52.2814307 104.00359173 52.59801765 104.65743065 52.92419815 C109.24415799 55.21143656 113.83281788 57.49478419 118.421875 59.77734375 C123.6523301 62.37892943 128.88199376 64.98208626 134.109375 67.58984375 C134.74418793 67.90648987 135.37900085 68.22313599 136.03305054 68.54937744 C144.15720167 72.6051415 152.22976687 76.74328675 160.24511719 81.01000977 C171.85196812 87.16214431 183.65972176 92.92937034 195.421875 98.77734375 C222.97069889 112.47422275 222.97069889 112.47422275 235.71984863 119.25190735 C241.17243963 122.14298018 246.67139243 124.92765668 252.203125 127.6640625 C253.0065332 128.06182892 253.80994141 128.45959534 254.63769531 128.86941528 C257.88987102 130.47745277 261.14330178 132.08284284 264.40039062 133.6809082 C277.70340352 140.21560643 290.12547119 147.04883545 301.421875 156.77734375 C302.45441406 157.66486328 302.45441406 157.66486328 303.5078125 158.5703125 C314.583109 168.8357553 322.99301386 183.7060568 323.66015625 198.96484375 C324.08347805 217.3011612 319.46713901 232.00744638 306.62109375 245.51171875 C305.89535156 246.259375 305.16960937 247.00703125 304.421875 247.77734375 C303.89207031 248.380625 303.36226563 248.98390625 302.81640625 249.60546875 C293.89394468 259.42247016 281.39978242 265.45552394 269.78125 271.4140625 C268.51900495 272.06404692 267.25676764 272.71404637 265.99453735 273.36405945 C249.00662642 282.09326835 231.89370932 290.5767575 214.796875 299.08984375 C208.95057047 302.00100779 203.10502343 304.91367532 197.26115799 307.82973289 C194.98097442 308.96667944 192.69956845 310.10114236 190.4180603 311.23542786 C182.89716462 314.98282468 175.4249641 318.80747317 167.99853516 322.73901367 C159.45219249 327.26264757 150.83574782 331.63067996 142.17807007 335.93682861 C139.64153653 337.19852241 137.10639548 338.46297946 134.5715332 339.72802734 C128.28380942 342.86531927 121.99387239 345.99816337 115.70397949 349.13110352 C110.35478565 351.79571117 105.00648483 354.46209687 99.65927124 357.13067627 C97.20183181 358.3562343 94.74317181 359.57931604 92.28442383 360.80224609 C83.56749063 365.14658491 74.91321328 369.59346139 66.30374336 374.14712048 C54.80631223 380.22673225 43.19448503 386.07972234 31.57861328 391.92895508 C28.71671775 393.37109361 25.85895619 394.82098828 23.00439453 396.27758789 C19.48749019 398.07201841 15.96357699 399.85194604 12.43460464 401.62251854 C11.11761007 402.28612295 9.80296781 402.95442296 8.49108505 403.62807655 C-10.94299577 413.59443679 -32.80489885 419.63146003 -54.49609375 413.80078125 C-70.964763 408.33209767 -83.08552714 396.74206281 -91.29296875 381.6171875 C-96.88563223 370.14470666 -99.0313923 359.34093304 -98.96580505 346.62846375 C-98.97119059 345.35880935 -98.97657613 344.08915496 -98.98212487 342.78102618 C-98.99646613 339.29113285 -98.99237065 335.80147795 -98.98495805 332.31157219 C-98.9802003 328.5343428 -98.99275919 324.75716308 -99.00297546 320.97994995 C-99.02011854 313.59306364 -99.02101277 306.20626256 -99.01576256 298.81936153 C-99.01171091 292.81099578 -99.01317621 286.8026551 -99.01851082 280.79429054 C-99.01925924 279.93710992 -99.02000766 279.0799293 -99.02077876 278.1967735 C-99.02231034 276.45505087 -99.02384869 274.71332825 -99.02539373 272.97160564 C-99.03910275 256.65991031 -99.03369254 240.34826302 -99.02220852 224.0365688 C-99.01227982 209.13884062 -99.02521336 194.24123671 -99.04914271 179.3435277 C-99.07357079 164.01896429 -99.08313236 148.69445868 -99.07648998 133.36987621 C-99.07300574 124.77736186 -99.07517704 116.18494301 -99.09274101 107.59244347 C-99.10750956 100.27720738 -99.10803808 92.96213403 -99.0906701 85.64690097 C-99.08219543 81.92039206 -99.07992298 78.19417327 -99.09532166 74.46767998 C-99.1883122 50.20490702 -97.41005633 30.68531974 -80.578125 11.77734375 C-79.95035156 11.05546875 -79.32257813 10.33359375 -78.67578125 9.58984375 C-58.98219844 -11.6743929 -24.49502744 -12.5276856 0 0 Z M-48.09765625 40.44140625 C-54.99530479 48.86627137 -56.02319899 57.34556555 -55.96580505 67.98495483 C-55.97119059 69.18953138 -55.97657613 70.39410793 -55.98212487 71.63518679 C-55.99390812 74.95725539 -55.99235606 78.27881885 -55.98495805 81.60086679 C-55.98021198 85.19197795 -55.99274894 88.78303625 -56.00297546 92.37413025 C-56.02014091 99.40113992 -56.02100814 106.42806008 -56.01576256 113.45508526 C-56.01171528 119.16893512 -56.01317104 124.8827586 -56.01851082 130.59660721 C-56.01925924 131.41094341 -56.02000766 132.22527962 -56.02077876 133.06429268 C-56.0223103 134.71881083 -56.02384865 136.37332898 -56.02539373 138.02784713 C-56.03911072 153.53155209 -56.03368681 169.03520654 -56.02220852 184.53891034 C-56.01227783 198.70881646 -56.02521538 212.87859196 -56.04914271 227.04847793 C-56.07355124 241.61355939 -56.08313722 256.17858006 -56.07648998 270.74368155 C-56.07300155 278.91469409 -56.07520493 287.08560621 -56.09274101 295.25660324 C-56.10748498 302.21263889 -56.10806991 309.16850341 -56.0906701 316.12453578 C-56.08217552 319.6702848 -56.07997228 323.21572841 -56.09532166 326.76146126 C-56.111788 330.61305112 -56.09698077 334.46417313 -56.07933044 338.31576538 C-56.08893545 339.42541479 -56.09854046 340.53506421 -56.10843652 341.67833936 C-56.01354237 351.77229673 -53.64831127 360.82763378 -46.48828125 368.24609375 C-42.07299256 371.78554808 -37.47871346 371.9875382 -31.98828125 371.609375 C-25.96953576 370.94491432 -21.173429 368.63115951 -15.828125 365.90234375 C-14.83586914 365.4112915 -13.84361328 364.92023926 -12.82128906 364.41430664 C-10.75497736 363.38915848 -8.6921566 362.35694506 -6.6328125 361.31787109 C-3.71599191 359.84687222 -0.78990794 358.39657483 2.140625 356.953125 C9.66820546 353.23108218 17.15797312 349.45401861 24.57562256 345.51698303 C38.90472752 337.91948031 53.43864251 330.73713771 67.9609375 323.51806641 C79.77766722 317.64081544 91.57487659 311.74876092 103.22827148 305.55310059 C115.30077096 299.1599203 127.58299699 293.17007535 139.81542969 287.09082031 C155.9426967 279.07881458 155.9426967 279.07881458 171.921875 270.77734375 C184.75488777 263.95659329 197.80200711 257.55821047 210.81542969 251.09082031 C223.4480744 244.80917294 236.04173552 238.47884252 248.49609375 231.84960938 C252.10828343 229.92958435 255.75963655 228.09986485 259.421875 226.27734375 C267.50518898 221.88984894 276.45993037 215.54014409 280.01953125 206.703125 C280.80623623 202.93763419 280.13123075 200.08961186 278.421875 196.77734375 C270.56705411 184.92218968 256.17119812 178.92870902 243.796875 172.90234375 C236.22765889 169.1919437 228.71375569 165.41910962 221.2734375 161.45703125 C212.0852884 156.58014362 202.79156642 151.92138831 193.484375 147.27734375 C192.71935291 146.89555843 191.95433083 146.51377312 191.16612625 146.12041855 C185.58611807 143.33656358 180.00419158 140.55656621 174.421875 137.77734375 C168.06644082 134.61321553 161.7117667 131.44757652 155.359375 128.27734375 C154.59069092 127.89376205 153.82200684 127.51018036 153.0300293 127.11497498 C144.97225359 123.09126907 136.92881267 119.05308103 128.984375 114.80859375 C120.08956161 110.05720694 111.06931583 105.56113222 102.046875 101.05859375 C101.2579184 100.66483551 100.46896179 100.27107727 99.65609741 99.86538696 C93.91276471 96.9998779 88.16750943 94.13823416 82.421875 91.27734375 C75.87894365 88.01945991 69.33673401 84.76014146 62.796875 81.49609375 C62.01011635 81.10343323 61.2233577 80.71077271 60.41275787 80.30621338 C51.25411423 75.73207486 42.12695399 71.11434858 33.0914917 66.3001709 C23.48135431 61.18797866 13.7428894 56.32634882 4.01074219 51.45166016 C0.63188692 49.75729123 -2.74260704 48.05442622 -6.1171875 46.3515625 C-8.2861961 45.26379987 -10.45545758 44.17654129 -12.625 43.08984375 C-13.62295593 42.58469238 -14.62091187 42.07954102 -15.64910889 41.55908203 C-25.54426745 36.62731243 -39.31013413 30.81805297 -48.09765625 40.44140625 Z " fill="#000000" transform="translate(143.578125,53.22265625)"/>
</svg>
