<?xml version="1.0" standalone="no"?>
<!DOCTYPE svg PUBLIC "-//W3C//DTD SVG 20010904//EN"
 "http://www.w3.org/TR/2001/REC-SVG-20010904/DTD/svg10.dtd">
<svg version="1.0" xmlns="http://www.w3.org/2000/svg"
 width="512.000000pt" height="512.000000pt" viewBox="0 0 512.000000 512.000000"
 preserveAspectRatio="xMidYMid meet">

<g transform="translate(0.000000,512.000000) scale(0.100000,-0.100000)"
fill="#000000" stroke="none">
<path d="M2290 4834 c-782 -119 -1402 -707 -1559 -1479 -105 -516 23 -1082
336 -1486 l53 -69 0 -565 c0 -547 1 -568 21 -628 40 -118 132 -208 248 -241
111 -32 124 -30 668 151 l503 168 503 -168 c545 -181 557 -184 668 -151 108
32 186 102 237 212 l27 57 3 584 3 584 33 41 c106 129 231 362 291 539 132
391 134 802 4 1192 -224 674 -802 1156 -1510 1260 -133 19 -399 18 -529 -1z
m600 -337 c473 -113 840 -399 1051 -820 158 -313 204 -676 130 -1017 -140
-638 -663 -1120 -1309 -1205 -583 -77 -1156 182 -1484 669 -196 292 -289 646
-259 985 19 214 70 391 168 584 213 417 599 711 1063 807 139 29 138 29 345
25 161 -3 206 -7 295 -28z m-1198 -3162 c180 -95 413 -170 611 -196 l98 -13
-3 -79 -3 -80 -445 -149 c-245 -81 -451 -148 -459 -148 -8 0 -23 7 -33 17 -17
15 -18 41 -18 409 l0 394 85 -56 c46 -30 122 -75 167 -99z m1972 -647 c-10
-10 -24 -18 -33 -18 -9 0 -216 67 -461 148 l-445 149 -3 80 -3 79 96 13 c268
35 545 140 772 291 l88 59 3 -391 c2 -353 1 -393 -14 -410z"/>
<path d="M2459 3996 c-87 -23 -180 -94 -223 -171 -10 -17 -36 -84 -59 -149
-57 -161 -54 -159 -250 -166 -129 -5 -159 -9 -201 -28 -220 -100 -290 -358
-153 -560 17 -26 73 -76 136 -122 101 -75 131 -108 131 -148 0 -9 -16 -65 -34
-124 -44 -135 -50 -180 -37 -250 29 -162 147 -278 309 -308 116 -21 203 8 347
115 87 64 119 79 153 70 13 -3 71 -39 128 -80 124 -87 182 -110 279 -109 120
2 234 62 299 157 78 115 86 217 31 392 -37 116 -42 154 -25 186 6 10 51 48
100 84 167 123 222 211 222 355 0 43 -7 94 -16 120 -40 109 -137 204 -241 235
-31 10 -93 15 -173 15 -133 0 -182 13 -204 53 -6 11 -27 71 -48 133 -43 131
-86 196 -163 247 -93 62 -204 81 -308 53z m120 -306 c12 -6 35 -56 62 -137 65
-191 140 -278 287 -333 45 -17 87 -23 197 -27 77 -3 146 -10 153 -16 6 -5 12
-22 12 -37 0 -24 -15 -40 -105 -108 -123 -91 -176 -157 -205 -249 -30 -99 -27
-179 15 -316 42 -137 42 -152 11 -172 -30 -20 -39 -16 -141 61 -139 103 -254
138 -377 115 -86 -17 -128 -37 -234 -114 -50 -36 -97 -67 -105 -68 -22 -5 -57
10 -63 27 -3 9 10 68 30 132 45 142 52 215 30 300 -32 125 -71 178 -217 288
-103 78 -121 104 -94 133 13 16 38 19 153 24 161 6 216 20 304 80 86 59 136
135 183 278 47 142 62 162 104 139z"/>
</g>
</svg>
