<?xml version="1.0" encoding="UTF-8"?>
<svg version="1.1" xmlns="http://www.w3.org/2000/svg" width="512" height="512">
<path d="M0 0 C0.77557251 -0.00701431 1.55114502 -0.01402863 2.35021973 -0.02125549 C4.84421651 -0.03868307 7.33797578 -0.0451092 9.83203125 -0.046875 C10.68423248 -0.04754974 11.53643372 -0.04822449 12.41445923 -0.04891968 C25.36864964 -0.03261628 37.94729123 0.405988 50.64453125 3.203125 C51.41603516 3.36941406 52.18753906 3.53570312 52.98242188 3.70703125 C103.59616753 14.9916814 147.3221175 45.29646558 175.83203125 88.51953125 C177.83774132 91.71221428 179.75928434 94.93795509 181.64453125 98.203125 C182.30066406 99.3271875 182.95679688 100.45125 183.6328125 101.609375 C199.75455485 130.02198936 206.86928987 162.52736128 206.89453125 194.953125 C206.89520599 195.73213165 206.89588074 196.51113831 206.89657593 197.31375122 C206.8793904 209.82851119 206.24752224 221.92462604 203.64453125 234.203125 C203.4729248 235.02731934 203.30131836 235.85151367 203.12451172 236.70068359 C199.14932305 255.21959204 192.64609169 272.55824054 183.64453125 289.203125 C183.31308105 289.82058594 182.98163086 290.43804687 182.64013672 291.07421875 C178.21803822 299.24872814 173.30228451 306.8299891 167.64453125 314.203125 C171.56345503 318.89797342 175.64119622 323.33559379 179.98902893 327.63423157 C180.59907695 328.24160618 181.20912497 328.8489808 181.8376593 329.47476071 C183.86408457 331.49119746 185.89409272 333.50398765 187.92407227 335.5168457 C189.38506076 336.96935878 190.84578797 338.42213471 192.30627441 339.87515259 C195.44305388 342.9952587 198.58119915 346.11398238 201.72027779 349.23177528 C206.68753291 354.16632331 211.64875728 359.10690425 216.60862732 364.0488739 C217.44712001 364.88428013 218.2856127 365.71968635 219.14951426 366.58040792 C220.86356276 368.28814899 222.57760244 369.99589892 224.29163349 371.70365751 C235.83239736 383.20146863 247.3775955 394.6947689 258.93725586 406.17358398 C266.74490543 413.9267221 274.54360158 421.68874493 282.33220047 429.46102208 C286.44984498 433.56930536 290.57193805 437.67289225 294.70508003 441.76558876 C298.59250999 445.61508352 302.46805105 449.47616012 306.33493805 453.34628677 C307.75233618 454.76072284 309.17400357 456.1708962 310.600317 457.57634163 C326.36996156 473.12551449 326.36996156 473.12551449 328.30859375 483.890625 C328.21702789 491.65540979 327.46085396 497.90485684 322.64453125 504.203125 C316.84464652 509.81591668 311.06541519 512.48626607 302.95703125 512.640625 C301.81878906 512.68058594 300.68054688 512.72054687 299.5078125 512.76171875 C286.79903579 510.92415043 278.85216692 501.09012901 270.28076172 492.40698242 C268.75328734 490.87809616 267.2247081 489.35031306 265.69511414 487.82354736 C261.56266859 483.69253185 257.4457828 479.54632212 253.33158255 475.39714599 C249.02310297 471.05733449 244.70038675 466.73175054 240.37918091 462.40461731 C232.20606111 454.21597926 224.04576685 446.01468342 215.89003861 437.80872756 C206.60122401 428.46395702 197.29814726 419.13344046 187.99386382 409.8040756 C168.86154311 390.61954238 149.7471422 371.41723808 130.64453125 352.203125 C128.9202911 353.29773328 127.19640234 354.3928951 125.47265625 355.48828125 C124.51262695 356.09808838 123.55259766 356.70789551 122.56347656 357.33618164 C119.8279444 359.08581483 117.1100443 360.8601527 114.39453125 362.640625 C95.95290515 374.27703133 75.89146245 382.30965594 54.64453125 387.203125 C53.8237207 387.39922363 53.00291016 387.59532227 52.15722656 387.79736328 C26.80477326 393.62337801 -2.92894964 393.96435234 -28.35546875 388.203125 C-29.14759766 388.03683594 -29.93972656 387.87054688 -30.75585938 387.69921875 C-68.41285771 379.72479557 -100.67645082 360.51066006 -128.35546875 334.203125 C-128.98710937 333.62433594 -129.61875 333.04554688 -130.26953125 332.44921875 C-161.23401805 303.17236985 -183.27968509 254.40762512 -184.5324707 211.91210938 C-184.5586261 210.37378465 -184.57879068 208.83534933 -184.59375 207.296875 C-184.60354385 206.4628717 -184.61333771 205.62886841 -184.62342834 204.76959229 C-184.79299641 186.58286293 -184.71535249 168.97340976 -180.35546875 151.203125 C-180.14647949 150.31898926 -179.93749023 149.43485352 -179.72216797 148.52392578 C-167.8562724 99.52266565 -135.86663903 55.44315995 -93.08349609 28.78759766 C-65.28712674 12.13876205 -32.70024204 0.19874207 0 0 Z M-21.35546875 54.203125 C-22.50450684 54.49316406 -22.50450684 54.49316406 -23.67675781 54.7890625 C-60.84435093 64.31996885 -92.88449256 87.5729844 -112.98046875 120.390625 C-119.82719352 131.98027365 -124.98320373 144.09217037 -128.73046875 157.015625 C-129.08854614 158.24949951 -129.08854614 158.24949951 -129.45385742 159.50830078 C-132.71695546 171.42067387 -133.72131056 183.12887979 -133.66796875 195.453125 C-133.6658136 196.13388092 -133.66365845 196.81463684 -133.66143799 197.51602173 C-133.6080253 208.05206014 -133.06399605 217.98971997 -130.35546875 228.203125 C-130.16210938 228.97060059 -129.96875 229.73807617 -129.76953125 230.52880859 C-119.90606675 268.98566518 -95.6590919 301.14156346 -61.54296875 321.390625 C-47.42656225 329.13085688 -33.14963846 334.91645854 -17.35546875 338.203125 C-16.47141357 338.38858887 -15.5873584 338.57405273 -14.67651367 338.76513672 C-6.27436026 340.35360353 2.05846964 340.60341312 10.58203125 340.578125 C11.30619232 340.57724884 12.03035339 340.57637268 12.77645874 340.57546997 C51.57351176 340.42122749 85.8999006 324.9494481 113.64453125 298.203125 C114.28777344 297.61144531 114.93101562 297.01976562 115.59375 296.41015625 C140.35156768 273.03739131 154.87925895 236.61907455 155.92578125 203.00390625 C156.170178 189.47722486 156.08776931 176.34088629 152.64453125 163.203125 C152.45648926 162.44483398 152.26844727 161.68654297 152.07470703 160.90527344 C145.43909697 134.64789519 132.48126318 112.51077523 113.64453125 93.203125 C112.68546875 92.15125 112.68546875 92.15125 111.70703125 91.078125 C94.16768451 72.32916814 68.98801921 60.8590271 44.64453125 54.203125 C43.98598145 54.02088379 43.32743164 53.83864258 42.64892578 53.65087891 C23.11850741 48.54073299 -1.91568743 49.0066314 -21.35546875 54.203125 Z " fill="#000000" transform="translate(184.35546875,-0.203125)"/>
</svg>
