<?xml version="1.0" encoding="UTF-8"?>
<svg version="1.1" xmlns="http://www.w3.org/2000/svg" width="512" height="512">
<path d="M0 0 C12.58404309 8.80883016 19.17106412 19.71687612 22.9375 34.46875 C24.38018656 52.14166034 18.27393834 67.71972045 12.7265625 84.2421875 C12.09285626 86.14023199 11.45951319 88.03839776 10.82650757 89.93667603 C9.49954907 93.9129716 8.1696792 97.88827623 6.83740234 101.86279297 C5.17529797 106.8213311 3.51813671 111.78150073 1.86294937 116.74235153 C-4.94256547 137.13746203 -11.8125478 157.50917666 -18.78043747 177.84937668 C-23.18228007 190.70344686 -27.5223482 203.57697499 -31.8125 216.46875 C-32.10139729 217.33685932 -32.39029457 218.20496864 -32.68794632 219.09938431 C-34.73166615 225.24260849 -36.77241943 231.38681648 -38.8125 237.53125 C-41.1437896 244.55276384 -43.47643718 251.57382259 -45.8125 258.59375 C-46.10158234 259.46255924 -46.39066467 260.33136848 -46.68850708 261.22650528 C-50.9805134 274.11775353 -55.34388303 286.98328764 -59.75 299.8359375 C-64.67857447 314.21265335 -69.52723157 328.61401139 -74.3125 343.0390625 C-74.77701569 344.4384972 -74.77701569 344.4384972 -75.25091553 345.86620331 C-78.08450078 354.4031941 -80.91509705 362.94117033 -83.73876953 371.48144531 C-85.31359558 376.24385857 -86.89295969 381.00474733 -88.47509766 385.76473618 C-89.06356564 387.53806523 -89.65038576 389.3119422 -90.23535156 391.0864296 C-103.83461801 432.33399634 -103.83461801 432.33399634 -122.47265625 443.0625 C-136.25277 449.88316062 -150.48120667 449.67673457 -164.88525391 445.22021484 C-169.75684221 443.47868682 -173.78443863 440.71930514 -177.8125 437.53125 C-178.85083984 436.72300781 -178.85083984 436.72300781 -179.91015625 435.8984375 C-191.48437489 425.63581024 -197.93745286 408.6687987 -205.07470703 395.23876953 C-209.02443356 387.81420303 -213.07433974 380.4566646 -217.25 373.15625 C-222.27281263 364.36691096 -227.07574396 355.47652021 -231.8125 346.53125 C-237.08721866 336.57088664 -242.46694349 326.68924015 -248.07446289 316.91064453 C-250.90150872 311.96695005 -253.64566092 306.99366854 -256.296875 301.953125 C-256.87477783 300.85983887 -257.45268066 299.76655273 -258.0480957 298.64013672 C-259.15153415 296.54342955 -260.24450082 294.44116469 -261.32495117 292.33251953 C-266.77114161 282.00889472 -273.57054811 278.33938046 -283.6875 273.03125 C-285.44264295 272.09864605 -287.19778016 271.16603095 -288.95245361 270.23254395 C-290.74561882 269.27942616 -292.54023765 268.32908625 -294.33496094 267.37890625 C-299.51164439 264.62847517 -304.66217033 261.83062287 -309.8125 259.03125 C-321.37211539 252.7624843 -332.94994723 246.52776451 -344.53027344 240.29736328 C-347.7939202 238.54124749 -351.05719582 236.7844443 -354.3203125 235.02734375 C-355.3925708 234.45000488 -356.4648291 233.87266602 -357.56958008 233.27783203 C-359.72589764 232.11647572 -361.88198617 230.95469406 -364.0378418 229.79248047 C-369.58580655 226.80243888 -375.13838148 223.82151025 -380.69921875 220.85546875 C-424.75442365 197.33047904 -424.75442365 197.33047904 -432.0546875 175.4296875 C-435.31322998 162.96660235 -434.03736288 149.19302693 -428.1875 137.65625 C-418.3296665 121.52524973 -404.73559085 115.00040796 -387.46875 109.375 C-385.68830679 108.78241068 -383.90833412 108.18840612 -382.12878418 107.59313965 C-378.18914208 106.2782403 -374.24656807 104.9726504 -370.30175781 103.67333984 C-363.39509268 101.39695859 -356.49805159 99.09215134 -349.6015625 96.78515625 C-339.23311026 93.31885178 -328.86213188 89.86026878 -318.48828125 86.41015625 C-317.82470549 86.18945591 -317.16112972 85.96875557 -316.4774456 85.74136734 C-311.07972453 83.94618806 -305.68184538 82.15148432 -300.28395844 80.35680389 C-290.28241492 77.03145991 -280.2813096 73.70480409 -270.28125 70.375 C-269.62812584 70.15754277 -268.97500168 69.94008554 -268.30208588 69.7160387 C-252.67033674 64.51092567 -237.05044001 59.27514891 -221.46875 53.921875 C-192.12217272 43.84233229 -162.6688769 34.07551234 -133.23365641 24.25869274 C-124.20909822 21.24892248 -115.18584817 18.2352721 -106.16368008 15.21834493 C-99.09716483 12.85563372 -92.02949995 10.496384 -84.96095371 8.13975596 C-80.77372688 6.74366652 -76.58698633 5.34616093 -72.40145874 3.94498444 C-68.49530874 2.63743484 -64.58774424 1.3342038 -60.6790657 0.03423309 C-59.25355957 -0.44067979 -57.8285591 -0.91711381 -56.40412521 -1.39523315 C-36.97910565 -7.91269965 -18.56620082 -11.19432696 0 0 Z M-46.47668076 30.20864391 C-47.68918432 30.60825996 -48.90168788 31.007876 -50.15093398 31.41960162 C-51.50868858 31.87556025 -52.86639556 32.33166072 -54.22406006 32.78788757 C-55.65672946 33.26328719 -57.089616 33.73803282 -58.5227015 34.21217662 C-62.47662801 35.52250887 -66.42735459 36.84226541 -70.37763739 38.163535 C-74.63227931 39.58482059 -78.88977426 40.99751118 -83.14691162 42.41130066 C-91.49414597 45.18499319 -99.83862746 47.96687978 -108.18214676 50.7517251 C-114.96323939 53.01493714 -121.74526116 55.27534304 -128.52796173 57.53373146 C-129.49178413 57.85465396 -130.45560652 58.17557646 -131.44863565 58.50622389 C-133.40643261 59.15809926 -135.36423116 59.80996985 -137.32203129 60.46183572 C-155.70412059 66.58271381 -174.08304896 72.71303848 -192.46097234 78.84641138 C-208.23405051 84.11018375 -224.01001854 89.36521628 -239.78808594 94.61401367 C-258.09632999 100.70451088 -276.40258906 106.80091914 -294.7058413 112.90640289 C-296.65781604 113.55750818 -298.609794 114.20860382 -300.56177521 114.85968971 C-301.52225133 115.18005864 -302.48272746 115.50042757 -303.47230892 115.83050465 C-310.2440913 118.08877525 -317.01729396 120.34275194 -323.79106903 122.59503746 C-332.04891072 125.34088014 -340.30460722 128.09305928 -348.55760548 130.85342707 C-352.76942481 132.26196201 -356.98215655 133.66758669 -361.19754028 135.06542206 C-365.05667351 136.34521174 -368.91293834 137.63328087 -372.76708677 138.92800234 C-374.16177095 139.39489952 -375.55747477 139.85876414 -376.95427939 140.3192788 C-378.85393634 140.94608353 -380.74955553 141.58508589 -382.64495468 142.22465038 C-383.69873361 142.57605404 -384.75251255 142.9274577 -385.83822417 143.28950995 C-392.35814795 146.01153405 -396.58673222 149.71564809 -400.125 155.78125 C-401.45334567 161.09463268 -400.62459166 165.80555523 -398.3125 170.71875 C-391.87380982 177.96227645 -382.32669205 182.07751958 -373.875 186.53125 C-372.63594598 187.18883599 -371.39718185 187.84696844 -370.15869141 188.50561523 C-367.6175631 189.856779 -365.07545564 191.20607275 -362.53271484 192.55419922 C-356.90390092 195.54181307 -351.29599758 198.56822025 -345.6875 201.59375 C-343.54431805 202.74878553 -341.40108885 203.90373339 -339.2578125 205.05859375 C-337.66888184 205.91493408 -337.66888184 205.91493408 -336.04785156 206.78857422 C-332.75933232 208.55988801 -329.46966975 210.32906145 -326.1796875 212.09765625 C-316.93777333 217.06700533 -307.69669107 222.03719605 -298.48876953 227.06933594 C-296.72000244 228.03552617 -294.95016251 228.99975525 -293.17919922 229.96191406 C-288.6404792 232.42913273 -284.11526679 234.91687647 -279.61175537 237.44793701 C-277.22673306 238.7849254 -274.83465096 240.10895039 -272.44140625 241.43115234 C-270.71766358 242.38948033 -269.00325131 243.36452943 -267.2890625 244.33984375 C-266.24234375 244.91605469 -265.195625 245.49226562 -264.1171875 246.0859375 C-263.18890137 246.60655762 -262.26061523 247.12717773 -261.30419922 247.66357422 C-258.91957893 248.78447005 -258.91957893 248.78447005 -256.96861744 247.88187599 C-254.20792052 246.15253187 -252.12730436 244.0947319 -249.82292175 241.78890991 C-249.09016422 241.059774 -249.09016422 241.059774 -248.3426035 240.31590807 C-246.70823225 238.68716871 -245.08110233 237.05138423 -243.45385742 235.41552734 C-242.28279602 234.24553901 -241.11130176 233.0759838 -239.93940735 231.90682983 C-236.75699274 228.72926509 -233.58086863 225.54547995 -230.40595412 222.36042356 C-227.07863696 219.02431825 -223.74604414 215.69349074 -220.41413879 212.36196899 C-214.81458758 206.76148084 -209.21892367 201.15713244 -203.62573242 195.55029297 C-197.17166967 189.08053893 -190.71243013 182.61599141 -184.25014991 176.15444601 C-177.36014072 169.26511434 -170.47395435 162.37197123 -163.58886933 155.47771883 C-161.61105525 153.49778 -159.6325375 151.51854669 -157.65386009 149.53947067 C-154.53329665 146.41789673 -151.41531725 143.29376336 -148.29925346 140.16769791 C-147.15974348 139.02528613 -146.01940785 137.88369717 -144.87815475 136.74302673 C-139.58449977 131.45105063 -134.38205358 126.14215133 -129.50972271 120.45362282 C-126.12738971 116.62259641 -122.46824344 113.05733999 -118.84790039 109.453125 C-117.97881042 108.58388901 -117.10972046 107.71465302 -116.21429443 106.81907654 C-113.85501436 104.46036947 -111.4935537 102.10388797 -109.13105321 99.74840927 C-106.65354735 97.27719899 -104.1789156 94.80311387 -101.70396423 92.3293457 C-97.02775591 87.65623253 -92.34900674 82.98567204 -87.66931576 78.31604671 C-82.33715381 72.9951026 -77.00786649 67.67128326 -71.67880642 62.34723282 C-60.72654319 51.40539281 -49.77071549 40.46712904 -38.8125 29.53125 C-41.77904845 28.04797577 -43.36324908 29.1721675 -46.47668076 30.20864391 Z M-14.8125 53.53125 C-15.29473022 54.01440202 -15.77696045 54.49755404 -16.27380371 54.99534702 C-28.03210377 66.77577475 -39.7932031 78.55339991 -51.55738831 90.32795048 C-57.24649394 96.02220253 -62.93466377 101.71738341 -68.62060547 107.41479492 C-73.57906686 112.38325382 -78.53931023 117.34992568 -83.5016613 122.3144998 C-86.12675067 124.94088769 -88.75096649 127.5681347 -91.37304688 130.19752693 C-94.30714088 133.13973567 -97.24520833 136.07794622 -100.18359375 139.01586914 C-101.0431517 139.87902237 -101.90270966 140.7421756 -102.78831482 141.63148499 C-106.33501851 145.17217205 -109.8855354 148.64931652 -113.6920166 151.9107666 C-119.19203264 156.64551727 -124.24985584 161.83721325 -129.36914062 166.97436523 C-130.5129482 168.11845539 -131.65697702 169.26232439 -132.8012085 170.4059906 C-135.88552338 173.49002027 -138.96675979 176.57710871 -142.04742622 179.66478229 C-145.27537953 182.89901516 -148.50619218 186.13038921 -151.73669434 189.36207581 C-157.84415119 195.47263245 -163.94905589 201.58573223 -170.05303335 207.69976431 C-177.00636021 214.6642944 -183.96254943 221.62596257 -190.91897297 228.58739936 C-205.21998821 242.89884837 -219.51742972 257.213863 -233.8125 271.53125 C-232.30830047 276.21346815 -230.42447481 280.4564392 -228.1015625 284.78125 C-227.73767426 285.46727295 -227.37378601 286.1532959 -226.99887085 286.86010742 C-225.81633914 289.08630024 -224.62708421 291.30881895 -223.4375 293.53125 C-222.61039364 295.08448451 -221.78357289 296.63787115 -220.95703125 298.19140625 C-216.16985526 307.17750056 -211.32759721 316.13217671 -206.42553711 325.05615234 C-201.86628889 333.37850351 -197.43240957 341.76592643 -193 350.15625 C-185.49459839 364.35953745 -177.98424021 378.55922205 -170.34277344 392.68994141 C-168.99844091 395.18600746 -167.67242495 397.69069475 -166.3515625 400.19921875 C-161.69018521 408.92628687 -161.69018521 408.92628687 -153.8125 414.53125 C-149.12229253 415.82711837 -145.74075281 415.80972584 -141.0625 414.40625 C-129.95869131 408.00020652 -127.65633985 395.48161356 -123.8828125 384 C-123.40685287 382.5639376 -122.93043161 381.12802812 -122.45358276 379.69226074 C-121.19581385 375.90189445 -119.94315899 372.1098597 -118.69195557 368.31732178 C-116.49063075 361.64709922 -114.28096451 354.979636 -112.0703125 348.3125 C-111.81965782 347.55602676 -111.56900314 346.79955353 -111.31075287 346.02015686 C-107.34656155 334.06233668 -103.29771222 322.13516512 -99.2109375 310.21875 C-93.67384492 294.06855751 -88.23616528 277.88655401 -82.84375 261.6875 C-82.45628475 260.5236528 -82.0688195 259.3598056 -81.66961288 258.16069031 C-78.88175167 249.78492708 -76.09680947 241.40819447 -73.3125 233.03125 C-64.24857452 205.76129265 -55.18283521 178.4941053 -45.86680603 151.30906677 C-39.89399563 133.87738369 -34.01060862 116.41614187 -28.16577148 98.94116211 C-26.94915501 95.30501069 -25.72808495 91.67039526 -24.50366211 88.03686523 C-22.98965981 83.54385186 -21.48285932 79.04848672 -19.98139763 74.55126762 C-19.41655774 72.86344844 -18.84917127 71.17647919 -18.27914619 69.49040413 C-17.4975635 67.17693682 -16.72528323 64.86056927 -15.95532227 62.54321289 C-15.72125168 61.85740646 -15.48718109 61.17160004 -15.24601746 60.4650116 C-13.89856465 56.97114657 -13.89856465 56.97114657 -14.8125 53.53125 Z " fill="#000000" transform="translate(461.8125,35.46875)"/>
</svg>
