<?xml version="1.0" standalone="no"?>
<!DOCTYPE svg PUBLIC "-//W3C//DTD SVG 20010904//EN"
 "http://www.w3.org/TR/2001/REC-SVG-20010904/DTD/svg10.dtd">
<svg version="1.0" xmlns="http://www.w3.org/2000/svg"
 width="512.000000pt" height="512.000000pt" viewBox="0 0 512.000000 512.000000"
 preserveAspectRatio="xMidYMid meet">

<g transform="translate(0.000000,512.000000) scale(0.100000,-0.100000)"
fill="currentColor" stroke="#FEFEFE" stroke-width="95" stroke-linecap="round" stroke-linejoin="round">
<path d="M2330 5110 c-494 -48 -950 -230 -1350 -538 -195 -150 -448 -432 -594
-662 -63 -99 -186 -351 -230 -471 -49 -134 -102 -340 -128 -499 -31 -195 -31
-565 0 -760 45 -276 116 -498 237 -745 132 -269 269 -460 489 -681 221 -220
412 -357 681 -489 247 -121 469 -192 745 -237 195 -31 565 -31 760 0 276 45
498 116 745 237 269 132 460 269 681 489 220 221 357 412 489 681 88 179 132
296 180 476 63 240 78 371 78 649 0 278 -15 409 -78 649 -48 180 -92 297 -180
476 -132 269 -269 460 -489 681 -221 220 -412 357 -681 489 -246 121 -474 193
-740 235 -147 23 -475 34 -615 20z m508 -475 c707 -99 1309 -540 1614 -1183
137 -288 198 -564 198 -892 0 -191 -16 -329 -59 -506 -182 -741 -784 -1343
-1525 -1525 -177 -43 -315 -59 -506 -59 -191 0 -329 16 -506 59 -741 182
-1343 784 -1525 1525 -43 177 -59 315 -59 506 0 191 16 329 59 506 182 742
784 1344 1527 1525 67 16 164 36 215 43 131 19 432 20 567 1z"/>
<path d="M2450 3949 c-613 -46 -1131 -503 -1255 -1104 -95 -462 47 -936 381
-1269 546 -547 1422 -547 1968 0 547 546 547 1422 0 1968 -293 294 -679 436
-1094 405z m335 -487 c132 -37 199 -67 300 -135 152 -103 281 -267 344 -439
46 -124 55 -179 55 -328 0 -149 -9 -204 -55 -328 -90 -245 -296 -451 -541
-541 -124 -46 -179 -55 -328 -55 -149 0 -204 9 -328 55 -245 90 -451 296 -541
541 -46 124 -55 179 -55 328 0 149 9 204 55 328 90 245 296 451 541 541 55 21
151 46 203 55 67 10 281 -3 350 -22z"/>
<path d="M2473 2935 c-145 -32 -259 -150 -290 -301 -13 -66 -13 -82 0 -148 32
-157 146 -271 303 -303 66 -13 82 -13 148 0 157 32 271 146 303 303 13 66 13
82 0 148 -32 154 -145 270 -295 301 -80 17 -89 17 -169 0z"/>
</g>
</svg>
