<?xml version="1.0" encoding="UTF-8"?>
<svg version="1.1" xmlns="http://www.w3.org/2000/svg" width="512" height="512">
<path d="M0 0 C1.38397055 -0.00576172 1.38397055 -0.00576172 2.79590011 -0.01163983 C4.31105315 -0.01034011 4.31105315 -0.01034011 5.85681534 -0.00901413 C7.47056183 -0.01347081 7.47056183 -0.01347081 9.11690927 -0.01801753 C12.73417825 -0.02671281 16.35141417 -0.02821348 19.96869278 -0.02970505 C22.55725551 -0.03433262 25.14581756 -0.0393572 27.73437881 -0.04475021 C34.77577513 -0.05832737 41.81716574 -0.06435731 48.85857296 -0.06876087 C53.25612318 -0.07152437 57.6536712 -0.07576192 62.05121994 -0.08026505 C74.22920341 -0.09245697 86.40718512 -0.10275639 98.58517456 -0.10614014 C99.36447095 -0.1063597 100.14376734 -0.10657927 100.94667877 -0.10680549 C101.72782897 -0.10702377 102.50897916 -0.10724204 103.31380057 -0.10746694 C104.89668131 -0.1079104 106.47956205 -0.10835696 108.06244278 -0.10880661 C108.84760459 -0.10902804 109.6327664 -0.10924947 110.44172099 -0.10947761 C123.16221271 -0.11342505 135.88264713 -0.13087777 148.60311672 -0.15416613 C161.66622762 -0.17788855 174.72930977 -0.19034239 187.79244256 -0.19150805 C195.12561556 -0.19242432 202.45871389 -0.19816443 209.7918663 -0.21632767 C216.68978731 -0.23335281 223.58756447 -0.23497461 230.48550034 -0.22618866 C233.01708734 -0.2254171 235.5486819 -0.22977659 238.08024979 -0.23964691 C241.53686552 -0.25233338 244.99297663 -0.24650703 248.44958878 -0.23606491 C249.45076792 -0.24412132 250.45194705 -0.25217772 251.48346496 -0.26047826 C259.53061919 -0.2036454 266.49245798 1.21671641 272.40716934 7.13142776 C276.8920779 13.61636312 277.59013744 18.60579125 277.17645645 26.32307816 C277.13051063 27.22176904 277.0845648 28.12045992 277.03722668 29.04638386 C276.14208598 45.10105907 274.68496632 61.12495634 273.34270215 77.14689517 C273.01318344 81.08574249 272.68605999 85.02478731 272.35892719 88.96383339 C271.58689405 98.25980347 270.81116184 107.5554595 270.03290176 116.85091019 C269.23346317 126.39995077 268.43974414 135.94945435 267.64890629 145.49921077 C266.96570397 153.74717319 266.279253 161.99486073 265.59017032 170.24233395 C265.18036502 175.14734994 264.77167453 180.05245159 264.36600304 184.95781136 C263.98478444 189.56546673 263.59946324 194.1727618 263.21111298 198.7798214 C263.07022493 200.45896124 262.93070946 202.13821699 262.79275322 203.81760025 C260.3204728 233.87610184 253.96542782 260.38325739 230.30951309 280.85408401 C208.08142652 298.29550323 184.5226269 300.61175526 157.28216934 300.52986526 C154.88096402 300.53189196 152.4797593 300.53480831 150.07855606 300.53856277 C145.07279919 300.54295811 140.06720411 300.53664563 135.06146622 300.52254105 C128.69059743 300.50545115 122.320108 300.51530739 115.94925308 300.53325844 C110.9988565 300.54417208 106.04854777 300.54061538 101.09814835 300.53287506 C98.75093921 300.53089394 96.40372173 300.53325759 94.05652237 300.54031372 C64.46991477 300.60976851 38.95394269 295.43774423 17.23138809 274.15095901 C-2.68374194 253.53753292 -6.04102294 227.39082951 -8.28863144 200.05989456 C-8.44621746 198.18080189 -8.60415604 196.30173875 -8.76241684 194.42270279 C-9.1876078 189.36142024 -9.60763922 184.29972217 -10.02648401 179.23791099 C-10.46702831 173.92216002 -10.91170877 168.60675474 -11.35573959 163.2912941 C-12.0999865 154.37390921 -12.84081857 145.45624553 -13.57964706 136.53841019 C-14.43267001 126.24279018 -15.29134591 115.94765324 -16.15298092 105.65275067 C-16.98400242 95.72182669 -17.81081635 85.79055655 -18.63579559 75.85912895 C-18.98606097 71.64353412 -19.33782759 67.42806859 -19.69082642 63.2127018 C-20.1062706 58.24953361 -20.51803136 53.28607303 -20.92699432 48.32236671 C-21.07728293 46.50545056 -21.22882557 44.68863761 -21.38174057 42.87194061 C-21.59090799 40.38442347 -21.79544454 37.89656577 -21.99886703 35.40857315 C-22.09020343 34.34162792 -22.09020343 34.34162792 -22.18338501 33.25312823 C-22.96048832 23.58445148 -23.20467907 15.80718956 -17.84283066 7.38142776 C-12.78123898 2.31983609 -7.11051172 0.01113313 0 0 Z " fill="#000000" transform="translate(128.59283065795898,169.86857223510742)"/>
<path d="M0 0 C0.86146637 -0.00686325 1.72293274 -0.0137265 2.61050415 -0.02079773 C5.43077536 -0.03895331 8.25048422 -0.03524402 11.07080078 -0.02954102 C13.04940977 -0.03410853 15.02801718 -0.0394158 17.00662231 -0.04542542 C21.14380355 -0.05433473 25.28079153 -0.05195863 29.41796875 -0.04199219 C34.69568149 -0.03051139 39.97272425 -0.05071176 45.25034904 -0.07990932 C49.33411838 -0.09833766 53.41772917 -0.09796557 57.50152969 -0.0922718 C59.44620833 -0.09211937 61.39089826 -0.09809878 63.33553696 -0.11056328 C88.22846773 -0.24764902 88.22846773 -0.24764902 97.32861328 8.45874023 C102.87563166 15.36477812 105.48164167 22.99123098 106.37158203 31.71264648 C106.99442658 34.93926221 107.86734876 36.80826055 109.89111328 39.40405273 C114.49672461 42.22607402 117.96919411 42.77693087 123.33007812 42.77294922 C124.04962173 42.7767157 124.76916534 42.78048218 125.51051331 42.78436279 C127.06388424 42.79076941 128.61729442 42.79048961 130.17066574 42.78417778 C132.63516966 42.77502347 135.09891984 42.78534067 137.56338501 42.80079651 C144.56682233 42.84077361 151.57019796 42.84210259 158.57373047 42.83984375 C162.86668528 42.83979247 167.15923291 42.85904613 171.45207596 42.88917732 C173.86955966 42.89994607 176.28624734 42.88790619 178.70370483 42.87535095 C187.38389306 42.89650025 194.03131102 43.21036237 200.91455078 49.15014648 C201.36056641 49.70831055 201.80658203 50.26647461 202.26611328 50.84155273 C202.95833984 51.67493164 202.95833984 51.67493164 203.66455078 52.52514648 C207.36657341 58.19607923 207.73830584 63.81183566 206.89111328 70.40405273 C204.63383591 77.52858445 201.32694637 81.70940781 194.89111328 85.40405273 C191.86040141 86.41429003 189.83576972 86.53129244 186.66611004 86.5354805 C185.57701767 86.53932164 184.48792529 86.54316279 183.36583012 86.54712033 C181.56411319 86.54582061 181.56411319 86.54582061 179.72599792 86.54449463 C178.45359971 86.54746575 177.18120149 86.55043687 175.87024575 86.55349803 C172.33131242 86.56157618 168.79239936 86.56335805 165.2534579 86.5640955 C161.43944877 86.56594463 157.62545019 86.57349124 153.81144714 86.58023071 C145.46851425 86.59382018 137.12558616 86.59983966 128.78264403 86.60424137 C123.5748705 86.60700266 118.36709883 86.6112398 113.15932655 86.61574554 C98.74500107 86.62793883 84.33067708 86.63823815 69.91634655 86.64162064 C68.53217659 86.64194999 68.53217659 86.64194999 67.12004359 86.64228599 C65.73253352 86.6426134 65.73253352 86.6426134 64.31699294 86.64294744 C62.4425298 86.6433909 60.56806666 86.64383747 58.69360352 86.64428711 C57.29890135 86.64461925 57.29890135 86.64461925 55.87602339 86.64495811 C40.806772 86.6489069 25.73756895 86.66636314 10.66833623 86.68964663 C-4.79713936 86.7133498 -20.26259069 86.72582201 -35.72808474 86.72698855 C-44.41377468 86.72790588 -53.09940163 86.73367264 -61.78507423 86.75180817 C-69.18053695 86.76719517 -76.57591723 86.7723379 -83.97139291 86.76407006 C-87.74529078 86.76015862 -91.51902256 86.76111711 -95.29290009 86.77512741 C-99.38299402 86.79017293 -103.47271236 86.78201455 -107.56282043 86.77154541 C-108.75727289 86.77960181 -109.95172536 86.78765822 -111.18237334 86.79595876 C-118.46915181 86.75218261 -123.00227487 85.99289594 -128.73388672 81.21655273 C-133.8164243 75.19775823 -135.82901032 70.03790315 -135.48779297 62.07983398 C-134.51839463 55.23408283 -131.20738523 50.96614662 -125.98779297 46.63061523 C-121.31288882 43.5788067 -117.30160792 43.15403988 -111.76757812 43.14868164 C-111.04657425 43.14506119 -110.32557037 43.14144073 -109.5827179 43.13771057 C-108.02332445 43.13083871 -106.46390706 43.12830698 -104.90449905 43.12965775 C-102.43204866 43.13062636 -99.960029 43.11764123 -97.48764038 43.10067749 C-90.46038128 43.05450768 -83.43316736 43.02980579 -76.40576172 43.02319336 C-72.10096821 43.01816693 -67.7966258 42.99386141 -63.49198532 42.95786667 C-61.85663949 42.94809618 -60.2212314 42.94572167 -58.58586502 42.95103836 C-56.29308408 42.9581429 -54.00163921 42.94075973 -51.70898438 42.91821289 C-50.40724274 42.91536285 -49.1055011 42.91251282 -47.76431274 42.90957642 C-43.20587761 42.27917195 -40.89004735 41.00095099 -37.10888672 38.40405273 C-34.5407343 34.1533177 -33.94939026 30.48280038 -33.29638672 25.59155273 C-31.9117502 16.59704395 -27.82445664 10.05463977 -20.52685547 4.65795898 C-13.84223021 1.19145703 -7.47067974 -0.04246648 0 0 Z " fill="#000000" transform="translate(220.10888671875,41.595947265625)"/>
</svg>
