<?xml version="1.0" standalone="no"?>
<!DOCTYPE svg PUBLIC "-//W3C//DTD SVG 20010904//EN"
 "http://www.w3.org/TR/2001/REC-SVG-20010904/DTD/svg10.dtd">
<svg version="1.0" xmlns="http://www.w3.org/2000/svg"
 width="512.000000pt" height="512.000000pt" viewBox="0 0 512.000000 512.000000"
 preserveAspectRatio="xMidYMid meet">

<g transform="translate(0.000000,512.000000) scale(0.100000,-0.100000)"
fill="#000000" stroke="none">
<path d="M1961 4784 c-169 -45 -301 -180 -346 -351 -11 -41 -15 -111 -15 -245
l0 -187 -469 -3 c-456 -3 -470 -4 -497 -24 -53 -39 -69 -71 -69 -134 0 -44 5
-66 21 -86 39 -53 69 -68 152 -74 l77 -5 141 -1480 c78 -814 147 -1500 154
-1525 44 -160 179 -291 345 -335 51 -13 197 -15 1096 -15 663 0 1056 4 1090
10 170 32 324 174 369 340 7 25 76 711 154 1525 l141 1480 77 5 c83 6 113 21
152 74 16 20 21 42 21 86 0 63 -16 95 -69 134 -27 20 -41 21 -497 24 l-469 3
0 187 c0 134 -4 204 -15 245 -45 173 -178 307 -350 352 -85 22 -1112 21 -1194
-1z m1165 -330 c66 -49 69 -58 72 -265 l3 -189 -640 0 -641 0 0 174 c0 181 6
214 43 255 47 51 44 51 609 48 514 -2 527 -2 554 -23z m854 -794 c0 -59 -272
-2871 -281 -2905 -13 -48 -68 -102 -112 -110 -18 -3 -491 -4 -1053 -3 l-1021
3 -35 27 c-22 17 -42 45 -52 70 -10 29 -59 506 -151 1473 -74 787 -135 1438
-135 1448 0 16 74 17 1420 17 l1420 0 0 -20z"/>
<path d="M1745 2986 c-37 -16 -83 -68 -92 -104 -3 -14 8 -341 26 -726 31 -661
34 -704 54 -746 37 -76 123 -109 200 -76 39 16 84 67 94 104 3 14 -8 339 -26
722 -35 761 -35 759 -97 807 -42 31 -114 40 -159 19z"/>
<path d="M2495 2986 c-41 -18 -83 -69 -90 -109 -3 -18 -5 -352 -3 -744 3 -701
3 -712 24 -739 39 -53 71 -69 134 -69 63 0 95 16 134 69 21 27 21 36 21 766 0
730 0 739 -21 766 -11 15 -32 37 -46 47 -33 25 -113 32 -153 13z"/>
<path d="M3240 2981 c-41 -21 -78 -71 -85 -115 -5 -35 -65 -1302 -65 -1382 0
-87 61 -154 147 -161 66 -5 120 26 150 87 20 42 23 85 54 746 18 385 29 712
26 726 -4 15 -19 41 -34 59 -49 58 -128 75 -193 40z"/>
</g>
</svg>
